<svg width="20" height="20" viewBox="0 0 20 20" fill="none" xmlns="http://www.w3.org/2000/svg">
<path d="M4.325 5.31662C4.16667 5.31662 4 5.24995 3.88334 5.13328C3.64167 4.89162 3.64167 4.49162 3.88334 4.24995L6.90834 1.22495C7.15 0.983285 7.55001 0.983285 7.79167 1.22495C8.03334 1.46662 8.03334 1.86662 7.79167 2.10828L4.76667 5.13328C4.64167 5.24995 4.48334 5.31662 4.325 5.31662Z" fill="white"/>
<path d="M15.675 5.31662C15.5167 5.31662 15.3583 5.25828 15.2333 5.13328L12.2083 2.10828C11.9667 1.86662 11.9667 1.46662 12.2083 1.22495C12.45 0.983285 12.85 0.983285 13.0917 1.22495L16.1167 4.24995C16.3583 4.49162 16.3583 4.89162 16.1167 5.13328C16 5.24995 15.8333 5.31662 15.675 5.31662Z" fill="white"/>
<path d="M16.8417 8.83333C16.7833 8.83333 16.725 8.83333 16.6667 8.83333H16.475H3.33332C2.74999 8.84167 2.08332 8.84167 1.59999 8.35833C1.21666 7.98333 1.04166 7.4 1.04166 6.54167C1.04166 4.25 2.71666 4.25 3.51666 4.25H16.4833C17.2833 4.25 18.9583 4.25 18.9583 6.54167C18.9583 7.40833 18.7833 7.98333 18.4 8.35833C17.9667 8.79167 17.3833 8.83333 16.8417 8.83333ZM3.51666 7.58333H16.675C17.05 7.59167 17.4 7.59167 17.5167 7.475C17.575 7.41667 17.7 7.21667 17.7 6.54167C17.7 5.6 17.4667 5.5 16.475 5.5H3.51666C2.52499 5.5 2.29166 5.6 2.29166 6.54167C2.29166 7.21667 2.42499 7.41667 2.47499 7.475C2.59166 7.58333 2.94999 7.58333 3.31666 7.58333H3.51666Z" fill="white"/>
<path d="M8.13333 15.25C7.79166 15.25 7.50833 14.9666 7.50833 14.625V11.6666C7.50833 11.325 7.79166 11.0416 8.13333 11.0416C8.475 11.0416 8.75833 11.325 8.75833 11.6666V14.625C8.75833 14.975 8.475 15.25 8.13333 15.25Z" fill="white"/>
<path d="M11.9667 15.25C11.625 15.25 11.3417 14.9666 11.3417 14.625V11.6666C11.3417 11.325 11.625 11.0416 11.9667 11.0416C12.3083 11.0416 12.5917 11.325 12.5917 11.6666V14.625C12.5917 14.975 12.3083 15.25 11.9667 15.25Z" fill="white"/>
<path d="M12.4083 18.9584H7.38332C4.39999 18.9584 3.73332 17.1834 3.47499 15.6417L2.29999 8.43337C2.24166 8.09171 2.47499 7.77504 2.81666 7.71671C3.15832 7.65837 3.47499 7.89171 3.53332 8.23337L4.70832 15.4334C4.94999 16.9084 5.44999 17.7084 7.38332 17.7084H12.4083C14.55 17.7084 14.7917 16.9584 15.0667 15.5084L16.4667 8.21671C16.5333 7.87504 16.8583 7.65004 17.2 7.72504C17.5417 7.79171 17.7583 8.11671 17.6917 8.45837L16.2917 15.75C15.9667 17.4417 15.425 18.9584 12.4083 18.9584Z" fill="white"/>
</svg>
