<svg width="32" height="32" viewBox="0 0 32 32" fill="none" xmlns="http://www.w3.org/2000/svg">
<g clip-path="url(#clip0)">
<path d="M28.7375 31.9999H3.26226C2.51901 31.9999 1.84276 31.5731 1.52732 30.9047L0.256137 28.2115C0.196574 28.0853 0.289324 27.9404 0.429637 27.9404H31.5702C31.7105 27.9404 31.8033 28.0853 31.7437 28.2115L30.4725 30.9047C30.1569 31.5731 29.4808 31.9999 28.7375 31.9999Z" fill="#ECF4FF"/>
<path d="M31.5703 27.9406H29.6675C29.8078 27.9406 29.9005 28.0854 29.841 28.2116L28.5698 30.9048C28.2543 31.5731 27.5781 32 26.8348 32H28.7377C29.481 32 30.1572 31.5731 30.4726 30.9047L31.7438 28.2116C31.8034 28.0854 31.7107 27.9406 31.5703 27.9406Z" fill="#DDEAFB"/>
<path d="M28.881 17.6843C28.7189 17.6843 28.561 17.6015 28.472 17.4522C28.1317 16.8816 27.9895 16.3098 28.0493 15.7525C28.0951 15.326 28.2463 15.0385 28.3796 14.785C28.479 14.5961 28.5648 14.4329 28.6166 14.2047C28.7135 13.7792 28.6439 13.2927 28.4098 12.7587C28.3042 12.5181 28.4137 12.2375 28.6544 12.1319C28.8949 12.0265 29.1756 12.1359 29.2811 12.3766C29.5989 13.1012 29.6875 13.7874 29.5444 14.4158C29.4649 14.7654 29.3358 15.011 29.2218 15.2277C29.1057 15.4486 29.0218 15.6082 28.9953 15.8542C28.958 16.2017 29.0568 16.5754 29.2892 16.9649C29.4238 17.1906 29.3499 17.4825 29.1243 17.6172C29.0478 17.6627 28.9638 17.6843 28.881 17.6843Z" fill="#E2DFE3"/>
<path d="M26.6717 12.3894C26.5096 12.3894 26.3517 12.3066 26.2627 12.1573C25.9224 11.5867 25.7802 11.0149 25.8401 10.4576C25.8859 10.0311 26.0371 9.74361 26.1704 9.48999C26.2697 9.30105 26.3555 9.13786 26.4075 8.90974C26.5042 8.48417 26.4346 7.99767 26.2005 7.46374C26.0949 7.22317 26.2044 6.94255 26.4451 6.83699C26.6859 6.73161 26.9663 6.84099 27.0718 7.08161C27.3896 7.80617 27.4782 8.49224 27.3352 9.1208C27.2556 9.47036 27.1266 9.71599 27.0126 9.93274C26.8964 10.1536 26.8126 10.3132 26.7861 10.5592C26.7487 10.9067 26.8476 11.2805 27.0799 11.67C27.2145 11.8957 27.1406 12.1876 26.915 12.3222C26.8386 12.3677 26.7546 12.3894 26.6717 12.3894Z" fill="#E2DFE3"/>
<path d="M7.08508 9.35915C6.92301 9.35915 6.76508 9.27634 6.67608 9.12703C6.33576 8.55634 6.19351 7.98453 6.25345 7.42734C6.29926 7.00078 6.45045 6.71334 6.58376 6.45971C6.68314 6.27078 6.76889 6.10759 6.82076 5.87953C6.91758 5.4539 6.84795 4.9674 6.61383 4.43353C6.50826 4.1929 6.61776 3.91234 6.85839 3.80678C7.09914 3.70128 7.37964 3.81071 7.48514 4.05134C7.80295 4.7759 7.89151 5.46196 7.74858 6.09059C7.66901 6.44015 7.53989 6.68578 7.42589 6.90253C7.30976 7.12334 7.22589 7.28296 7.19945 7.52896C7.16208 7.87646 7.26095 8.25015 7.49326 8.63971C7.62789 8.86534 7.55401 9.15734 7.32839 9.29196C7.25195 9.33753 7.16795 9.35915 7.08508 9.35915Z" fill="#E2DFE3"/>
<path d="M4.23081 5.59243C4.06875 5.59243 3.91081 5.50961 3.82181 5.3603C3.4815 4.78961 3.33931 4.2178 3.39918 3.66061C3.445 3.23411 3.59618 2.94668 3.7295 2.69305C3.82881 2.50411 3.91462 2.34093 3.9665 2.1128C4.06331 1.68718 3.99368 1.20068 3.75956 0.666738C3.654 0.426176 3.7635 0.145551 4.00412 0.0399884C4.24481 -0.0653866 4.52537 0.0439884 4.63087 0.284613C4.94862 1.00918 5.03725 1.69524 4.89431 2.3238C4.81475 2.67343 4.68562 2.91905 4.57162 3.1358C4.4555 3.35668 4.37162 3.51624 4.34518 3.76224C4.30781 4.10974 4.40668 4.48343 4.639 4.87299C4.77362 5.09861 4.69975 5.39061 4.47412 5.52524C4.39768 5.5708 4.31368 5.59243 4.23081 5.59243Z" fill="#E2DFE3"/>
<path d="M10.9206 9.74397C10.4354 9.21754 10.4416 8.39246 10.9341 7.87281C11.1181 7.67853 11.3446 7.55046 11.5846 7.48827C11.7035 7.45747 11.797 7.36395 11.8278 7.24509C11.89 7.00507 12.0181 6.77862 12.2123 6.59454C12.7319 6.10213 13.5571 6.09595 14.0835 6.58105C14.5954 7.05279 14.6636 7.81384 14.2884 8.36291C14.2093 8.4788 14.2211 8.63392 14.3204 8.73317L16.4645 10.8773L15.2168 12.125L13.0727 9.98083C12.9734 9.88159 12.8183 9.86974 12.7024 9.94891C12.1534 10.324 11.3924 10.2559 10.9206 9.74397Z" fill="#F7F6F7"/>
<path d="M18.2351 20.3435C20.0309 22.1394 22.9523 22.124 24.7289 20.2972C26.4613 18.5158 26.4509 15.6877 24.7061 13.9184C23.899 13.1 22.8602 12.6515 21.799 12.5727C20.4391 12.4718 19.1426 11.9577 18.0915 11.0889L16.6227 9.87478C15.9428 9.31281 14.9471 9.35993 14.3234 9.9837C13.6997 10.6074 13.6525 11.6032 14.2145 12.283L15.4922 13.8288C16.324 14.8351 16.8333 16.0761 16.9072 17.3795C16.9684 18.4583 17.4109 19.5194 18.2351 20.3435Z" fill="#C6855B"/>
<path d="M24.7062 13.9185C23.8991 13.1001 22.8603 12.6515 21.7992 12.5728C20.4392 12.4719 19.1427 11.9578 18.0916 11.089L16.6228 9.87493C15.9429 9.31289 14.9472 9.36008 14.3235 9.98385C14.1599 10.1475 14.037 10.337 13.9534 10.5394C14.1909 10.6 14.4189 10.7113 14.6191 10.8769L16.0879 12.0909C17.139 12.9597 18.4355 13.4739 19.7954 13.5748C20.8566 13.6535 21.8954 14.102 22.7025 14.9204C24.4472 16.6896 24.4576 19.5178 22.7253 21.2992C22.6311 21.3961 22.533 21.4867 22.4327 21.5734C23.2771 21.3897 24.0796 20.9651 24.729 20.2973C26.4614 18.5159 26.451 15.6878 24.7062 13.9185Z" fill="#C17E4E"/>
<path d="M28.8239 28.0673L28.8245 28.0667C29.9179 27.0948 30.6058 25.9875 30.6626 24.8153C30.7861 22.2639 27.8881 20.0652 25.7134 18.6459C25.3454 18.4055 24.9981 18.1877 24.6901 17.994C23.1366 17.0196 20.658 15.4634 17.3733 15.4754C17.0113 15.4767 16.6386 15.4968 16.2573 15.5395C14.3183 15.7546 12.7802 16.4646 11.6989 17.1278C11.1177 17.495 10.2927 18.073 9.41907 18.9084C8.09815 20.1714 5.53853 22.619 5.91886 25.4926C5.99276 26.0509 6.22705 26.9985 7.10571 28.0673H28.8239Z" fill="#C6855B"/>
<path d="M25.7138 18.646C25.3458 18.4056 24.9985 18.1878 24.6905 17.9942C23.137 17.0197 20.6584 15.4635 17.3737 15.4755C17.0593 15.4767 16.7365 15.493 16.4073 15.525C19.1797 15.7945 21.3015 17.1252 22.6869 17.9942C22.9947 18.1878 23.3421 18.4056 23.7101 18.646C25.8848 20.0653 28.7829 22.2641 28.6593 24.8154C28.6025 25.9876 27.9146 27.095 26.8213 28.0668L26.8206 28.0675H28.8243L28.825 28.0668C29.9183 27.095 30.6062 25.9876 30.663 24.8154C30.7865 22.264 27.8885 20.0653 25.7138 18.646Z" fill="#C17E4E"/>
<path d="M24.8365 22.8251C25.5691 22.9648 26.463 23.1457 27.0318 23.6675C28.3284 24.8569 26.4606 25.507 25.466 25.7559C23.7874 26.1758 20.3978 26.029 19.2812 23.5396C18.6774 22.1937 19.0299 20.8108 19.4004 19.9314C19.5223 19.6421 19.9413 19.6656 20.0281 19.9673C20.0802 20.1482 20.1501 20.3407 20.2435 20.5392C20.3529 20.7712 20.5696 21.2732 21.0648 21.6778C21.8095 22.2862 22.8135 22.5013 23.7402 22.6477C24.0029 22.6892 24.3991 22.7417 24.8365 22.8251Z" fill="#C17E4E"/>
<path d="M6.96743 24.2936C8.0809 25.4071 9.56134 26.0203 11.136 26.0203H11.1362C12.7418 26.0203 14.2432 25.3859 15.3635 24.2341C16.4464 23.1205 17.0398 21.6537 17.0342 20.104C17.0286 18.5545 16.4248 17.092 15.3342 15.986C15.2502 15.9009 15.1631 15.8197 15.0747 15.7402C13.6851 16.0561 12.5499 16.6059 11.6989 17.1279C11.1177 17.4951 10.2928 18.0731 9.41912 18.9086C8.45155 19.8337 6.81942 21.3945 6.16492 23.2928C6.39375 23.6517 6.66167 23.9879 6.96743 24.2936Z" fill="#C17E4E"/>
<path d="M0.597698 12.7495C0.112532 12.223 0.118719 11.398 0.61119 10.8783C0.795266 10.684 1.02173 10.556 1.26174 10.4938C1.3806 10.463 1.47412 10.3694 1.50492 10.2506C1.56711 10.0106 1.69525 9.78411 1.88946 9.60003C2.40904 9.10763 3.23419 9.10144 3.76062 9.58654C4.27251 10.0583 4.34069 10.8193 3.96556 11.3684C3.88639 11.4843 3.89824 11.6394 3.99748 11.7387L6.14164 13.8828L4.89397 15.1305L2.74982 12.9863C2.65057 12.8871 2.49545 12.8752 2.37956 12.9544C1.83049 13.3295 1.06944 13.2614 0.597698 12.7495Z" fill="#F7F6F7"/>
<path d="M7.91231 23.3491C9.70819 25.145 12.6295 25.1296 14.4061 23.3028C16.1385 21.5214 16.1282 18.6933 14.3833 16.924C13.5762 16.1056 12.5374 15.6571 11.4763 15.5784C10.1164 15.4774 8.81986 14.9633 7.76878 14.0945L6.29998 12.8804C5.62008 12.3184 4.62435 12.3655 4.00064 12.9893C3.37694 13.613 3.32976 14.6088 3.89173 15.2887L5.16947 16.8344C6.0012 17.8407 6.51052 19.0817 6.58442 20.3851C6.64563 21.4639 7.08821 22.525 7.91231 23.3491Z" fill="#C6855B"/>
</g>
<defs>
<clipPath id="clip0">
<rect width="32" height="32" fill="white"/>
</clipPath>
</defs>
</svg>
