<svg width="30" height="30" viewBox="0 0 30 30" fill="none" xmlns="http://www.w3.org/2000/svg">
<path d="M22.5 25.3125C22.5 24.9416 22.39 24.5791 22.184 24.2708C21.978 23.9624 21.6851 23.7221 21.3425 23.5802C20.9999 23.4383 20.6229 23.4012 20.2592 23.4735C19.8955 23.5459 19.5614 23.7244 19.2991 23.9867C19.0369 24.2489 18.8583 24.583 18.786 24.9467C18.7137 25.3104 18.7508 25.6874 18.8927 26.03C19.0346 26.3726 19.2749 26.6655 19.5833 26.8715C19.8916 27.0775 20.2541 27.1875 20.625 27.1875C21.1223 27.1875 21.5992 26.9899 21.9508 26.6383C22.3024 26.2867 22.5 25.8098 22.5 25.3125ZM19.6875 25.3125C19.6875 25.1271 19.7425 24.9458 19.8455 24.7916C19.9485 24.6375 20.0949 24.5173 20.2662 24.4463C20.4375 24.3754 20.626 24.3568 20.8079 24.393C20.9897 24.4292 21.1568 24.5185 21.2879 24.6496C21.419 24.7807 21.5083 24.9477 21.5445 25.1296C21.5806 25.3114 21.5621 25.4999 21.4911 25.6712C21.4202 25.8425 21.3 25.989 21.1458 26.092C20.9917 26.195 20.8104 26.25 20.625 26.25C20.3763 26.25 20.1379 26.1512 19.9621 25.9754C19.7862 25.7996 19.6875 25.5611 19.6875 25.3125Z" fill="#646D84"/>
<path d="M26.3039 24.7584C26.1808 24.7416 26.056 24.7744 25.957 24.8495C25.858 24.9247 25.793 25.0361 25.7761 25.1592L25.372 28.125H18.2812C18.1569 28.125 18.0377 28.1744 17.9498 28.2623C17.8619 28.3502 17.8125 28.4694 17.8125 28.5937C17.8125 28.7181 17.8619 28.8373 17.9498 28.9252C18.0377 29.0131 18.1569 29.0625 18.2812 29.0625H25.7812C25.8946 29.0625 26.0041 29.0214 26.0896 28.9469C26.175 28.8723 26.2305 28.7694 26.2458 28.657L26.7056 25.2862C26.7139 25.2252 26.7101 25.1631 26.6944 25.1036C26.6787 25.044 26.6515 24.9881 26.6142 24.9391C26.5768 24.89 26.5302 24.8489 26.477 24.8179C26.4238 24.7869 26.3649 24.7667 26.3039 24.7584Z" fill="#646D84"/>
<path d="M27.5405 17.9728C27.4965 17.9225 27.4422 17.8821 27.3813 17.8544C27.3205 17.8268 27.2544 17.8125 27.1875 17.8125H24.9844L25.7709 13.6814C25.781 13.6265 25.781 13.5703 25.7709 13.5155L25.987 12.5095L26.6869 13.6762L26.1234 16.3223C26.0974 16.4439 26.1207 16.5707 26.1883 16.6751C26.2558 16.7794 26.3619 16.8527 26.4834 16.8787C26.516 16.8856 26.5491 16.8891 26.5823 16.8891C26.6894 16.8889 26.7932 16.852 26.8765 16.7847C26.9597 16.7173 27.0174 16.6234 27.0398 16.5187L27.6455 13.6917C27.6707 13.5756 27.6506 13.4541 27.5892 13.3523L26.183 11.0086C26.1347 10.928 26.0634 10.8637 25.9782 10.8242C25.893 10.7846 25.7978 10.7715 25.7051 10.7867C25.6124 10.8019 25.5264 10.8445 25.4582 10.9092C25.39 10.9738 25.3429 11.0574 25.3228 11.1492L24.9375 12.9375L23.1408 12.2189C23.0744 12.1924 23.0028 12.1813 22.9315 12.1867C22.8602 12.1921 22.7911 12.2137 22.7295 12.2499C22.6678 12.2861 22.6152 12.3359 22.5758 12.3955C22.5363 12.4551 22.5111 12.523 22.5019 12.5939L22.1128 15.7055L21.8002 15.6272L21.5625 12.6187C21.5529 12.5166 21.5101 12.4204 21.4406 12.345L21.5344 11.138L21.9802 11.0044L23.2158 11.6634C23.2702 11.6935 23.33 11.7125 23.3918 11.7193C23.4536 11.7261 23.5161 11.7205 23.5757 11.7029C23.6353 11.6853 23.6908 11.656 23.739 11.6167C23.7872 11.5775 23.8271 11.529 23.8564 11.4742C23.8857 11.4193 23.9038 11.3592 23.9096 11.2974C23.9154 11.2355 23.9089 11.173 23.8904 11.1137C23.8718 11.0544 23.8417 10.9993 23.8017 10.9517C23.7617 10.9041 23.7126 10.865 23.6573 10.8366L22.2511 10.0866C22.142 10.0283 22.0143 10.0155 21.8958 10.0509L20.9583 10.3322C20.8678 10.3593 20.7876 10.4131 20.7282 10.4865C20.6688 10.5599 20.633 10.6496 20.6255 10.7437L20.5673 11.4684L20.018 10.9186C19.9705 10.8713 19.9134 10.8347 19.8506 10.8113C19.7878 10.7879 19.7207 10.7783 19.6538 10.783C19.587 10.7878 19.5219 10.8068 19.463 10.8388C19.4041 10.8709 19.3528 10.9152 19.3125 10.9687L18.75 11.7187V11.25C18.75 10.877 18.6018 10.5193 18.3381 10.2556C18.0744 9.9919 17.7167 9.84374 17.3438 9.84374H16.4062V9.37499C16.4062 9.00203 16.2581 8.64434 15.9944 8.38062C15.7306 8.1169 15.373 7.96874 15 7.96874H12.6562V5.75155L16.2488 3.35624C16.3 3.32208 16.344 3.27817 16.3782 3.227C16.4125 3.17584 16.4363 3.11843 16.4483 3.05806C16.4604 2.99768 16.4605 2.93552 16.4485 2.87513C16.4365 2.81474 16.4128 2.7573 16.3786 2.70608L15.3389 1.14608C15.3047 1.09486 15.2608 1.05087 15.2097 1.01662C15.1585 0.982376 15.1011 0.958543 15.0407 0.946486C14.9804 0.934428 14.9182 0.934382 14.8578 0.946351C14.7974 0.958319 14.74 0.982068 14.6888 1.01624L10.47 3.82874C10.2772 3.95693 10.1191 4.13086 10.0098 4.33501C9.90052 4.53916 9.84348 4.76718 9.84375 4.99874V7.96874H7.5C7.12704 7.96874 6.76935 8.1169 6.50563 8.38062C6.24191 8.64434 6.09375 9.00203 6.09375 9.37499V9.84374H5.15625C4.78329 9.84374 4.4256 9.9919 4.16188 10.2556C3.89816 10.5193 3.75 10.877 3.75 11.25V12.1875C3.75 12.1969 4.03125 14.6569 4.03125 14.6569C4.04425 14.7711 4.09881 14.8767 4.18455 14.9533C4.27029 15.03 4.38123 15.0725 4.49625 15.0726C4.51412 15.0727 4.53197 15.0716 4.54969 15.0694C4.67311 15.0552 4.78588 14.9927 4.86322 14.8955C4.94056 14.7983 4.97616 14.6744 4.96219 14.5509L4.74375 12.6562H8.4375C8.56182 12.6562 8.68105 12.6069 8.76896 12.5189C8.85686 12.431 8.90625 12.3118 8.90625 12.1875C8.90625 12.0632 8.85686 11.9439 8.76896 11.856C8.68105 11.7681 8.56182 11.7187 8.4375 11.7187H4.6875V11.25C4.6875 11.1257 4.73689 11.0064 4.82479 10.9185C4.9127 10.8306 5.03193 10.7812 5.15625 10.7812H17.3438C17.4681 10.7812 17.5873 10.8306 17.6752 10.9185C17.7631 11.0064 17.8125 11.1257 17.8125 11.25V11.7187H10.3125C10.1882 11.7187 10.069 11.7681 9.98104 11.856C9.89314 11.9439 9.84375 12.0632 9.84375 12.1875C9.84375 12.3118 9.89314 12.431 9.98104 12.5189C10.069 12.6069 10.1882 12.6562 10.3125 12.6562H18.0469L17.9062 12.8437C17.8368 12.9354 17.8034 13.0493 17.8125 13.1639L17.9531 14.8537L17.7834 14.3747C17.7599 14.3082 17.7217 14.2479 17.6716 14.1982C17.6215 14.1485 17.5609 14.1108 17.4942 14.0878L16.1053 13.6106C15.9878 13.5703 15.859 13.5783 15.7474 13.6329C15.6358 13.6875 15.5504 13.7842 15.51 13.9017L15.2564 14.6391L14.9662 13.8928C14.9322 13.805 14.8724 13.7296 14.7949 13.6762C14.7173 13.6229 14.6254 13.5941 14.5312 13.5937H12.6562C12.5807 13.5937 12.5062 13.6119 12.4392 13.6468C12.3722 13.6817 12.3147 13.7323 12.2714 13.7943C12.2282 13.8563 12.2006 13.9278 12.191 14.0027C12.1813 14.0776 12.19 14.1538 12.2161 14.2247L12.5081 15.0164C12.4012 15.0094 12.2958 15 12.1875 15H7.5C6.48871 14.999 5.49966 15.2968 4.65703 15.8559C4.60572 15.89 4.56162 15.9338 4.52725 15.9849C4.49287 16.036 4.4689 16.0933 4.45669 16.1537C4.43203 16.2755 4.4568 16.4022 4.52555 16.5058C4.5943 16.6095 4.70139 16.6815 4.82328 16.7062C4.94516 16.7309 5.07185 16.7061 5.17547 16.6373C5.8645 16.1802 6.67315 15.9368 7.5 15.9375H12.1875C13.2248 15.9388 14.2255 16.3217 14.9986 17.0132C15.7718 17.7048 16.2635 18.6567 16.38 19.6875H3.3075C3.38126 19.0241 3.61236 18.3878 3.98156 17.8317C4.04353 17.7281 4.06311 17.6045 4.03624 17.4868C4.00937 17.3691 3.93811 17.2663 3.83731 17.1998C3.73651 17.1334 3.61395 17.1083 3.49517 17.13C3.37639 17.1517 3.27054 17.2183 3.19969 17.3161C2.64122 18.158 2.34349 19.1459 2.34375 20.1562C2.34375 20.2806 2.39314 20.3998 2.48104 20.4877C2.56895 20.5756 2.68818 20.625 2.8125 20.625H2.87156C2.95151 20.9566 3.11646 21.2616 3.35016 21.51C3.30696 21.6805 3.28384 21.8554 3.28125 22.0312C3.2818 22.6382 3.51889 23.221 3.94219 23.6559C3.66894 23.8224 3.46214 24.0787 3.35728 24.381C3.25242 24.6832 3.25603 25.0126 3.3675 25.3125H2.8125C2.68818 25.3125 2.56895 25.3619 2.48104 25.4498C2.39314 25.5377 2.34375 25.6569 2.34375 25.7812V26.7187C2.34449 27.3401 2.59166 27.9358 3.03104 28.3752C3.47042 28.8146 4.06613 29.0617 4.6875 29.0625H6.09375C6.21807 29.0625 6.3373 29.0131 6.42521 28.9252C6.51311 28.8373 6.5625 28.7181 6.5625 28.5937C6.5625 28.4694 6.51311 28.3502 6.42521 28.2623C6.3373 28.1744 6.21807 28.125 6.09375 28.125H4.6875C4.31454 28.125 3.95685 27.9768 3.69313 27.7131C3.42941 27.4494 3.28125 27.0917 3.28125 26.7187V26.25H10.6495L10.8839 26.5425C10.9278 26.5974 10.9835 26.6417 11.0469 26.6722C11.1103 26.7027 11.1797 26.7185 11.25 26.7185C11.3203 26.7185 11.3897 26.7027 11.4531 26.6722C11.5165 26.6417 11.5722 26.5974 11.6161 26.5425L13.3505 24.375H15C15.1243 24.375 15.2435 24.4244 15.3315 24.5123C15.4194 24.6002 15.4688 24.7194 15.4688 24.8437C15.4688 24.9681 15.4194 25.0873 15.3315 25.1752C15.2435 25.2631 15.1243 25.3125 15 25.3125H13.9688C13.8444 25.3125 13.7252 25.3619 13.6373 25.4498C13.5494 25.5377 13.5 25.6569 13.5 25.7812C13.5 25.9056 13.5494 26.0248 13.6373 26.1127C13.7252 26.2006 13.8444 26.25 13.9688 26.25H16.4062V26.7187C16.4062 27.0917 16.2581 27.4494 15.9944 27.7131C15.7306 27.9768 15.373 28.125 15 28.125H7.96875C7.84443 28.125 7.7252 28.1744 7.63729 28.2623C7.54939 28.3502 7.5 28.4694 7.5 28.5937C7.5 28.7181 7.54939 28.8373 7.63729 28.9252C7.7252 29.0131 7.84443 29.0625 7.96875 29.0625H15C15.6214 29.0617 16.2171 28.8146 16.6565 28.3752C17.0958 27.9358 17.343 27.3401 17.3438 26.7187V25.7812C17.3438 25.6569 17.2944 25.5377 17.2065 25.4498C17.1185 25.3619 16.9993 25.3125 16.875 25.3125H16.32C16.4315 25.0126 16.4351 24.6832 16.3302 24.381C16.2254 24.0787 16.0186 23.8224 15.7453 23.6559C16.1686 23.221 16.4057 22.6382 16.4062 22.0312C16.4048 21.8651 16.3851 21.6995 16.3477 21.5376C16.6241 21.3075 16.8035 20.9816 16.8502 20.625H16.875C16.9043 20.6221 16.9331 20.6163 16.9612 20.6076C17.9466 21.5473 19.2637 22.0591 20.625 22.0312C23.0114 22.0312 24.9867 20.5973 25.2759 18.75H26.6503L26.0297 23.3006C26.0214 23.3616 26.0253 23.4236 26.041 23.4832C26.0567 23.5427 26.084 23.5985 26.1213 23.6475C26.1586 23.6965 26.2052 23.7376 26.2584 23.7686C26.3116 23.7995 26.3704 23.8197 26.4314 23.828C26.4524 23.8311 26.4735 23.8327 26.4947 23.8326C26.6081 23.8327 26.7176 23.7916 26.803 23.717C26.8884 23.6425 26.9439 23.5395 26.9592 23.4272L27.652 18.3445C27.6611 18.2782 27.6558 18.2107 27.6365 18.1466C27.6173 18.0825 27.5845 18.0232 27.5405 17.9728ZM10.7812 4.99874C10.7812 4.92159 10.8003 4.84562 10.8367 4.77759C10.873 4.70956 10.9257 4.65156 10.9898 4.60874L14.8186 2.0564L15.3389 2.8364L11.9273 5.10936C11.8632 5.15218 11.8105 5.21018 11.7742 5.27822C11.7378 5.34625 11.7187 5.42221 11.7188 5.49936V7.96874H10.7812V4.99874ZM7.03125 9.84374V9.37499C7.03125 9.25067 7.08064 9.13144 7.16854 9.04353C7.25645 8.95563 7.37568 8.90624 7.5 8.90624H15C15.1243 8.90624 15.2435 8.95563 15.3315 9.04353C15.4194 9.13144 15.4688 9.25067 15.4688 9.37499V9.84374H7.03125ZM21.5306 16.53L22.478 16.7644L22.2398 20.8134C21.9288 20.9256 21.6067 21.0042 21.2789 21.0478L21.5306 16.53ZM19.7381 11.9639L20.64 12.8658L20.8542 15.5428C20.841 15.5479 20.828 15.5537 20.8153 15.5601C20.7602 15.6013 20.7149 15.6541 20.6824 15.7148C20.65 15.7755 20.6314 15.8425 20.6278 15.9112L20.3405 21.0783C20.0238 21.06 19.7097 21.01 19.403 20.9292L18.7631 13.2656L19.7381 11.9639ZM13.3289 14.5312H14.2106L14.6325 15.6187C14.2958 15.4382 13.94 15.2959 13.5717 15.1945L13.3289 14.5312ZM15.4542 21.8859C15.4619 21.934 15.4667 21.9826 15.4688 22.0312C15.4688 22.4042 15.3206 22.7619 15.0569 23.0256C14.7931 23.2893 14.4355 23.4375 14.0625 23.4375H5.625C5.26295 23.4362 4.91533 23.2954 4.65452 23.0443C4.39371 22.7931 4.23981 22.4511 4.22484 22.0894L4.26797 22.1114C4.54392 22.2485 4.84787 22.3199 5.15602 22.3199C5.46416 22.3199 5.76812 22.2485 6.04406 22.1114L6.79828 21.7364C6.87058 21.7001 6.95036 21.6812 7.03125 21.6812C7.11214 21.6812 7.19192 21.7001 7.26422 21.7364L8.25375 22.2309C8.45648 22.3318 8.67983 22.3842 8.90625 22.3842C9.13267 22.3842 9.35602 22.3318 9.55875 22.2309L10.5469 21.7345C10.6192 21.6982 10.6989 21.6793 10.7798 21.6793C10.8607 21.6793 10.9405 21.6982 11.0128 21.7345L12.0023 22.2291C12.2051 22.3299 12.4284 22.3823 12.6548 22.3823C12.8813 22.3823 13.1046 22.3299 13.3073 22.2291L14.2969 21.7345C14.3692 21.6982 14.4489 21.6793 14.5298 21.6793C14.6107 21.6793 14.6905 21.6982 14.7628 21.7345C14.9773 21.841 15.2148 21.893 15.4542 21.8859ZM4.6875 25.3125C4.56318 25.3125 4.44395 25.2631 4.35604 25.1752C4.26814 25.0873 4.21875 24.9681 4.21875 24.8437C4.21875 24.7194 4.26814 24.6002 4.35604 24.5123C4.44395 24.4244 4.56318 24.375 4.6875 24.375H9.14953L9.89953 25.3125H4.6875ZM11.25 25.5L10.3505 24.375H12.1495L11.25 25.5ZM15.6905 20.8734C15.6732 20.8828 15.6553 20.8911 15.637 20.8983C15.6334 20.898 15.6298 20.898 15.6262 20.8983C15.6202 20.9006 15.6169 20.9058 15.6108 20.9081C15.5429 20.9372 15.4695 20.9511 15.3958 20.9487C15.322 20.9464 15.2496 20.9279 15.1837 20.8945C14.981 20.7937 14.7577 20.7412 14.5312 20.7412C14.3048 20.7412 14.0815 20.7937 13.8787 20.8945L12.8906 21.3905C12.8183 21.4267 12.7386 21.4456 12.6577 21.4456C12.5768 21.4456 12.497 21.4267 12.4247 21.3905L11.4352 20.8959C11.2324 20.7951 11.0091 20.7426 10.7827 20.7426C10.5562 20.7426 10.3329 20.7951 10.1302 20.8959L9.14062 21.3905C9.06833 21.4267 8.98855 21.4456 8.90766 21.4456C8.82676 21.4456 8.74699 21.4267 8.67469 21.3905L7.68516 20.8959C7.48242 20.7951 7.25908 20.7426 7.03266 20.7426C6.80623 20.7426 6.58289 20.7951 6.38016 20.8959L5.62641 21.2709C5.48075 21.3433 5.32031 21.381 5.15766 21.381C4.995 21.381 4.83456 21.3433 4.68891 21.2709L4.32938 21.0937C4.12923 20.9915 3.96769 20.827 3.86906 20.625H15.8962C15.8562 20.7277 15.784 20.8146 15.6905 20.873V20.8734ZM17.3081 19.5708C17.2234 18.8314 16.9785 18.1194 16.5905 17.4844L15.9623 15.4739L16.2459 14.6475L16.9777 14.8992L18.2611 18.5236L18.4294 20.542C17.986 20.3085 17.6023 19.976 17.3081 19.5703V19.5708ZM23.2083 20.3151L23.4375 16.4339C23.4439 16.3248 23.412 16.2169 23.3473 16.1288C23.2826 16.0407 23.1892 15.978 23.0831 15.9516L23.0306 15.9375L23.3587 13.3162L24.7795 13.8848L23.6222 19.9645C23.494 20.0923 23.3556 20.2094 23.2083 20.3147V20.3151Z" fill="#646D84"/>
<path d="M10.7812 18.2812C11.0401 18.2812 11.25 18.0714 11.25 17.8125C11.25 17.5536 11.0401 17.3437 10.7812 17.3437C10.5224 17.3437 10.3125 17.5536 10.3125 17.8125C10.3125 18.0714 10.5224 18.2812 10.7812 18.2812Z" fill="#646D84"/>
<path d="M8.90625 17.8125C9.16513 17.8125 9.375 17.6026 9.375 17.3437C9.375 17.0849 9.16513 16.875 8.90625 16.875C8.64737 16.875 8.4375 17.0849 8.4375 17.3437C8.4375 17.6026 8.64737 17.8125 8.90625 17.8125Z" fill="#646D84"/>
<path d="M7.5 18.75C7.75888 18.75 7.96875 18.5401 7.96875 18.2812C7.96875 18.0224 7.75888 17.8125 7.5 17.8125C7.24112 17.8125 7.03125 18.0224 7.03125 18.2812C7.03125 18.5401 7.24112 18.75 7.5 18.75Z" fill="#646D84"/>
<path d="M14.5312 18.75C14.7901 18.75 15 18.5401 15 18.2812C15 18.0224 14.7901 17.8125 14.5312 17.8125C14.2724 17.8125 14.0625 18.0224 14.0625 18.2812C14.0625 18.5401 14.2724 18.75 14.5312 18.75Z" fill="#646D84"/>
<path d="M5.625 18.2812C5.88388 18.2812 6.09375 18.0714 6.09375 17.8125C6.09375 17.5536 5.88388 17.3437 5.625 17.3437C5.36612 17.3437 5.15625 17.5536 5.15625 17.8125C5.15625 18.0714 5.36612 18.2812 5.625 18.2812Z" fill="#646D84"/>
<path d="M12.6562 17.8125C12.9151 17.8125 13.125 17.6026 13.125 17.3437C13.125 17.0849 12.9151 16.875 12.6562 16.875C12.3974 16.875 12.1875 17.0849 12.1875 17.3437C12.1875 17.6026 12.3974 17.8125 12.6562 17.8125Z" fill="#646D84"/>
</svg>
