<svg width="32" height="32" viewBox="0 0 32 32" fill="none" xmlns="http://www.w3.org/2000/svg">
<path d="M23.7051 14.2342C23.1133 13.2205 22.0147 12.539 20.7562 12.539C20.3529 12.539 19.9662 12.6094 19.607 12.7379C19.2091 11.2938 17.8871 10.2328 16.3165 10.2328C14.746 10.2328 13.424 11.2938 13.0261 12.7379C12.6669 12.6094 12.2802 12.539 11.8769 12.539C10.6184 12.539 9.51985 13.2205 8.9281 14.2342L16.3165 14.7967L23.7051 14.2342Z" fill="#F6E080"/>
<path d="M8.9284 14.2341C8.7229 14.5861 8.57808 14.9779 8.50952 15.3954L15.9998 15.9579L24.1241 15.3954C24.0556 14.9779 23.9108 14.5861 23.7053 14.2341H8.9284Z" fill="#ECCD61"/>
<path d="M3.57394 21.7607H1.28275C0.129062 21.7607 0.0500624 20.6337 0.138937 20.4593C0.350937 20.0429 0.783562 19.7577 1.28275 19.7577H4.13644L4.69894 20.4598L4.13644 21.1619L3.57394 21.7607Z" fill="#808B95"/>
<path d="M28.4261 21.7607H30.7173C31.871 21.7607 31.95 20.6337 31.8612 20.4593C31.6492 20.0429 31.2166 19.7577 30.7173 19.7577H27.8636L27.3011 20.4598L27.8636 21.1619L28.4261 21.7607Z" fill="#808B95"/>
<path d="M31.8601 20.4597C31.949 20.6342 32.0001 20.8312 32.0001 21.0403C32.0001 21.7488 31.4258 22.3231 30.7173 22.3231H27.8636L27.3011 21.7606L27.8636 21.1618H30.7173C31.2165 21.1618 31.6481 20.8761 31.8601 20.4597Z" fill="#5E6B75"/>
<path d="M0.14 20.4597C0.0511875 20.6342 0 20.8312 0 21.0403C0 21.7488 0.574313 22.3231 1.28275 22.3231H4.13644L4.69894 21.7606L4.13644 21.1618H1.28275C0.783563 21.1618 0.352 20.8761 0.14 20.4597Z" fill="#5E6B75"/>
<path d="M25.7517 32.0001H6.2481C5.08179 32.0001 4.13635 31.0546 4.13635 29.8883V19.1069L15.9999 18.5444L27.8635 19.1069V29.8883C27.8635 31.0546 26.918 32.0001 25.7517 32.0001Z" fill="#DC4955"/>
<path d="M4.13635 17.9457V19.1069H27.8635V17.9457L15.9999 17.3832L4.13635 17.9457Z" fill="#D82F3C"/>
<path d="M16.4912 2.3445L14.1227 0.985877L14.244 0.491501C14.3289 0.145439 14.6783 -0.066186 15.0244 0.0187515L19.1295 1.02631C19.4755 1.11125 19.6872 1.46063 19.6022 1.80669L19.4809 2.30106L16.4912 2.3445Z" fill="#808B95"/>
<path d="M14.1227 0.98584L13.8539 2.08115L16.4037 3.26946L19.2121 3.39628L19.4809 2.30096L14.1227 0.98584Z" fill="#5E6B75"/>
<path d="M15.6974 4.68852L4.98767 1.19677C5.5563 0.567336 6.44367 0.262398 7.32517 0.478773L25.741 4.99877C26.6225 5.21515 27.2679 5.89621 27.4805 6.71734L15.6974 4.68852Z" fill="#DC4955"/>
<path d="M4.98798 1.1969C4.73235 1.4799 4.54104 1.82834 4.44373 2.22459L27.487 7.88027C27.5842 7.48396 27.576 7.08652 27.4804 6.7174L4.98798 1.1969Z" fill="#D82F3C"/>
<path d="M8.60267 9.85619C8.38311 9.38276 7.90355 9.05444 7.34736 9.05444C6.79118 9.05444 6.31168 9.38276 6.09205 9.85619C6.01005 10.0329 6.08424 11.258 7.34736 11.258C8.61048 11.258 8.68467 10.0329 8.60267 9.85619Z" fill="#F6E080"/>
<path d="M7.34723 10.6592C6.79111 10.6592 6.31292 10.3302 6.0933 9.85681C6.0113 10.0336 5.96423 10.2298 5.96423 10.4374C5.96423 11.2012 6.58342 11.8205 7.34723 11.8205C8.11104 11.8205 8.73022 11.2013 8.73022 10.4374C8.73022 10.2297 8.68316 10.0336 8.60116 9.85681C8.3816 10.3302 7.90341 10.6592 7.34723 10.6592Z" fill="#ECCD61"/>
<path d="M28.0459 17.3831H3.9541C3.24985 17.3831 2.72941 16.2636 2.81885 16.0893C3.03016 15.6773 3.45922 15.3954 3.9541 15.3954H28.0458C28.5407 15.3954 28.9697 15.6773 29.181 16.0893C29.2705 16.2636 28.75 17.3831 28.0459 17.3831Z" fill="#E7ECF1"/>
<path d="M28.0458 16.7843H3.95408C3.45921 16.7843 3.03114 16.5018 2.81977 16.0898C2.73033 16.2642 2.67896 16.4612 2.67896 16.6705C2.67896 17.3747 3.24983 17.9456 3.95408 17.9456H28.0458C28.75 17.9456 29.3209 17.3747 29.3209 16.6705C29.3209 16.4611 29.2695 16.2641 29.1801 16.0898C28.9688 16.5018 28.5407 16.7843 28.0458 16.7843Z" fill="#C6D0DA"/>
<path d="M13.4549 6.7401C13.2354 6.26667 12.7558 5.93835 12.1996 5.93835C11.6435 5.93835 11.1639 6.26667 10.9443 6.7401C10.8624 6.91679 10.9365 8.14192 12.1996 8.14192C13.4627 8.14192 13.5369 6.91685 13.4549 6.7401Z" fill="#F6E080"/>
<path d="M12.1996 7.5431C11.6435 7.5431 11.1653 7.2141 10.9457 6.74072C10.8637 6.91747 10.8167 7.11372 10.8167 7.32135C10.8167 8.08516 11.4358 8.70441 12.1996 8.70441C12.9635 8.70441 13.5827 8.08522 13.5827 7.32135C13.5827 7.11366 13.5357 6.91747 13.4537 6.74072C13.234 7.2141 12.7558 7.5431 12.1996 7.5431Z" fill="#ECCD61"/>
<path d="M26.641 10.6103C26.4214 10.1369 25.9419 9.80859 25.3857 9.80859C24.8295 9.80859 24.3499 10.1369 24.1304 10.6103C24.0484 10.787 24.1225 12.0122 25.3857 12.0122C26.6488 12.0122 26.7229 10.787 26.641 10.6103Z" fill="#F6E080"/>
<path d="M25.3854 11.4133C24.8293 11.4133 24.3511 11.0843 24.1315 10.611C24.0495 10.7877 24.0024 10.984 24.0024 11.1916C24.0024 11.9554 24.6216 12.5746 25.3854 12.5746C26.1493 12.5746 26.7685 11.9554 26.7685 11.1916C26.7685 10.9839 26.7214 10.7877 26.6394 10.611C26.4198 11.0843 25.9416 11.4133 25.3854 11.4133Z" fill="#ECCD61"/>
</svg>
