<svg width="80" height="80" viewBox="0 0 80 80" fill="none" xmlns="http://www.w3.org/2000/svg">
<rect x="60" y="52" width="10" height="11" fill="#CDEEDF"/>
<path d="M42.5 36.25C41.5054 36.25 40.5516 36.6451 39.8483 37.3483C39.1451 38.0516 38.75 39.0054 38.75 40C38.75 40.9946 39.1451 41.9484 39.8483 42.6516C40.5516 43.3549 41.5054 43.75 42.5 43.75H55C55.9946 43.75 56.9484 43.3549 57.6516 42.6516C58.3549 41.9484 58.75 40.9946 58.75 40C58.75 39.0054 58.3549 38.0516 57.6516 37.3483C56.9484 36.6451 55.9946 36.25 55 36.25H42.5ZM56.25 40C56.2496 40.3314 56.1178 40.6491 55.8835 40.8835C55.6491 41.1178 55.3314 41.2496 55 41.25H42.5C42.1685 41.25 41.8505 41.1183 41.6161 40.8839C41.3817 40.6495 41.25 40.3315 41.25 40C41.25 39.6685 41.3817 39.3505 41.6161 39.1161C41.8505 38.8817 42.1685 38.75 42.5 38.75H55C55.3314 38.7504 55.6491 38.8822 55.8835 39.1165C56.1178 39.3509 56.2496 39.6686 56.25 40Z" fill="#05A85E"/>
<path d="M77.4473 23.3907L74.2986 12.8952C74.0511 12.0562 73.5379 11.3203 72.8361 10.7982C72.1344 10.2761 71.282 9.99599 70.4073 10H27.0927C26.2181 9.99613 25.3659 10.2763 24.6642 10.7984C23.9626 11.3205 23.4495 12.0563 23.202 12.8952L20.0527 23.3907C20.0023 23.5589 20 30 20 30H15C14.6685 30 14.3505 30.1317 14.1161 30.3662C13.8817 30.6006 13.75 30.9185 13.75 31.25C13.75 31.5816 13.8817 31.8995 14.1161 32.1339C14.3505 32.3683 14.6685 32.5 15 32.5H20V37.5H11.25C10.9185 37.5 10.6005 37.6317 10.3661 37.8662C10.1317 38.1006 10 38.4185 10 38.75C10 39.0816 10.1317 39.3995 10.3661 39.6339C10.6005 39.8683 10.9185 40 11.25 40H20V45H7.5C7.16848 45 6.85054 45.1317 6.61612 45.3662C6.3817 45.6006 6.25 45.9185 6.25 46.25C6.25 46.5816 6.3817 46.8995 6.61612 47.1339C6.85054 47.3683 7.16848 47.5 7.5 47.5H20V52.5H18.75C18.4185 52.5 18.1005 52.6317 17.8661 52.8662C17.6317 53.1006 17.5 53.4185 17.5 53.75C17.5 54.0816 17.6317 54.3995 17.8661 54.6339C18.1005 54.8683 18.4185 55 18.75 55H20V65.9375C20.0012 67.0146 20.4297 68.0472 21.1912 68.8088C21.9528 69.5704 22.9854 69.9988 24.0625 70H73.4375C74.5146 69.9988 75.5471 69.5704 76.3088 68.8088C77.0704 68.0472 77.4988 67.0146 77.5 65.9375C77.5 65.9375 77.4977 23.5589 77.4473 23.3907ZM70.4073 12.5C70.7438 12.4985 71.0716 12.6062 71.3415 12.807C71.6114 13.0078 71.8089 13.2908 71.9041 13.6135L74.57 22.5H56.1312L55.1312 12.5H70.4073ZM44.8811 12.5H52.6189L53.6189 22.5H43.8812L44.8811 12.5ZM43.75 25H53.75V30.6538L49.2142 28.8394C48.9162 28.7202 48.5838 28.7202 48.2858 28.8394L43.75 30.6538V25ZM25.5959 13.6135C25.6911 13.2908 25.8886 13.0078 26.1585 12.807C26.4284 12.6062 26.7562 12.4985 27.0927 12.5H42.3686L41.3686 22.5H22.93L25.5959 13.6135ZM75 65.9375C74.9995 66.3518 74.8348 66.749 74.5418 67.0419C74.2489 67.3348 73.8518 67.4996 73.4375 67.5H24.0625C23.6482 67.4996 23.2511 67.3348 22.9581 67.0419C22.6652 66.749 22.5005 66.3518 22.5 65.9375V55H30C30.3315 55 30.6495 54.8683 30.8839 54.6339C31.1183 54.3995 31.25 54.0816 31.25 53.75C31.25 53.4185 31.1183 53.1006 30.8839 52.8662C30.6495 52.6317 30.3315 52.5 30 52.5H22.5V47.5H28.75C29.0815 47.5 29.3995 47.3683 29.6339 47.1339C29.8683 46.8995 30 46.5816 30 46.25C30 45.9185 29.8683 45.6006 29.6339 45.3662C29.3995 45.1317 29.0815 45 28.75 45H22.5V40H26.25C26.5815 40 26.8995 39.8683 27.1339 39.6339C27.3683 39.3995 27.5 39.0816 27.5 38.75C27.5 38.4185 27.3683 38.1006 27.1339 37.8662C26.8995 37.6317 26.5815 37.5 26.25 37.5H22.5V32.5H23.75C24.0815 32.5 24.3995 32.3683 24.6339 32.1339C24.8683 31.8995 25 31.5816 25 31.25C25 30.9185 24.8683 30.6006 24.6339 30.3662C24.3995 30.1317 24.0815 30 23.75 30H22.5V25H41.25V32.5C41.25 32.7043 41.3001 32.9055 41.3958 33.0859C41.4915 33.2664 41.63 33.4206 41.7992 33.5351C41.9683 33.6497 42.163 33.721 42.3661 33.7429C42.5692 33.7648 42.7746 33.7365 42.9642 33.6607L48.75 31.3463L54.5358 33.6607C54.7254 33.7365 54.9308 33.7648 55.1339 33.7429C55.337 33.721 55.5317 33.6497 55.7008 33.5351C55.87 33.4206 56.0085 33.2664 56.1042 33.0859C56.1999 32.9055 56.25 32.7043 56.25 32.5V25H75V65.9375Z" fill="#05A85E"/>
<path d="M57.5 51.25V63.75C57.5 64.0815 57.6317 64.3995 57.8661 64.6339C58.1005 64.8683 58.4185 65 58.75 65H71.25C71.5815 65 71.8995 64.8683 72.1339 64.6339C72.3683 64.3995 72.5 64.0815 72.5 63.75V51.25C72.5 50.9185 72.3683 50.6005 72.1339 50.3661C71.8995 50.1317 71.5815 50 71.25 50H58.75C58.4185 50 58.1005 50.1317 57.8661 50.3661C57.6317 50.6005 57.5 50.9185 57.5 51.25ZM60 52.5H70V62.5H60V52.5Z" fill="#05A85E"/>
<path d="M3.75 40H6.25C6.58152 40 6.89946 39.8683 7.13388 39.6339C7.3683 39.3995 7.5 39.0815 7.5 38.75C7.5 38.4185 7.3683 38.1005 7.13388 37.8661C6.89946 37.6317 6.58152 37.5 6.25 37.5H3.75C3.41848 37.5 3.10054 37.6317 2.86612 37.8661C2.6317 38.1005 2.5 38.4185 2.5 38.75C2.5 39.0815 2.6317 39.3995 2.86612 39.6339C3.10054 39.8683 3.41848 40 3.75 40Z" fill="#05A85E"/>
<path d="M13.75 52.5H10C9.66848 52.5 9.35054 52.6317 9.11612 52.8661C8.8817 53.1005 8.75 53.4185 8.75 53.75C8.75 54.0815 8.8817 54.3995 9.11612 54.6339C9.35054 54.8683 9.66848 55 10 55H13.75C14.0815 55 14.3995 54.8683 14.6339 54.6339C14.8683 54.3995 15 54.0815 15 53.75C15 53.4185 14.8683 53.1005 14.6339 52.8661C14.3995 52.6317 14.0815 52.5 13.75 52.5Z" fill="#05A85E"/>
</svg>
