<svg width="32" height="32" viewBox="0 0 32 32" fill="none" xmlns="http://www.w3.org/2000/svg">
<path d="M13.0668 8.62639H10.9335V4.49306C10.9335 4.32293 10.9769 4.15545 11.0598 4.00547C11.1427 3.85549 11.2625 3.72766 11.4087 3.63332L16.2087 0.533325L17.3916 2.25279L13.0668 5.04589V8.62639Z" fill="#F9E109"/>
<path d="M17.3921 2.25377L13.0668 5.04377V8.62427H10.9335V4.49094C10.9335 4.32116 10.9769 4.15402 11.0597 4.00439C11.1425 3.85476 11.2622 3.72727 11.4081 3.63327L11.9468 3.28194C12.3763 3.41937 12.8334 3.4559 13.2804 3.38853C13.7273 3.32115 14.1514 3.1518 14.5175 2.89444L16.7521 1.3186L17.3921 2.25377Z" fill="#FCBC04"/>
<path d="M17.8667 30.5H6.13333L4 12.4166H20L17.8667 30.5Z" fill="#F8664F"/>
<path d="M5.06667 10.35H18.9333C19.2162 10.35 19.4875 10.4588 19.6876 10.6526C19.8876 10.8464 20 11.1093 20 11.3833V12.4166H4V11.3833C4 11.1093 4.11238 10.8464 4.31242 10.6526C4.51246 10.4588 4.78377 10.35 5.06667 10.35Z" fill="#84D2F4"/>
<path d="M7.73329 8.28333H16.2666C16.5495 8.28333 16.8208 8.39219 17.0209 8.58598C17.2209 8.77977 17.3333 9.0426 17.3333 9.31666V10.35H6.66663V9.31666C6.66663 9.0426 6.77901 8.77977 6.97905 8.58598C7.17908 8.39219 7.4504 8.28333 7.73329 8.28333Z" fill="#84D2F4"/>
<path d="M19.8187 13.9666H7.73333C10.8079 16.9448 14.8809 18.7591 19.216 19.0816L17.8667 30.5H6.13333L4 12.4166H20L19.8187 13.9666Z" fill="#CC5144"/>
<path d="M20 11.3833V12.4166H4V11.3833C4.00084 11.1095 4.1135 10.8471 4.31335 10.6535C4.51321 10.4599 4.78403 10.3508 5.06667 10.35C5.06751 10.6238 5.18016 10.8861 5.38002 11.0797C5.57987 11.2734 5.8507 11.3825 6.13333 11.3833H20Z" fill="#57B7EB"/>
<path d="M17.3333 9.31666V10.35H6.66663V9.31666C6.66747 9.04285 6.78012 8.78049 6.97998 8.58688C7.17983 8.39327 7.45065 8.28414 7.73329 8.28333C7.73414 8.55713 7.84679 8.81949 8.04664 9.0131C8.2465 9.20671 8.51732 9.31584 8.79996 9.31666H17.3333Z" fill="#57B7EB"/>
<path d="M22.5 11.5L21.5 24L21 29.5L23.5 30L25 12L23.5 11.2L22.5 11.5Z" fill="#E59730"/>
<path d="M19.5 14L20.5 26H23.5L22.5 13.5L21 12L19.5 14Z" fill="#FCBC04"/>
<path d="M23.5 26H20.5L19.5 14L20.09 13.215L21 20.5H21.5L22.045 17.32L22.5 17L22.805 17.305L23.5 26Z" fill="#E59730"/>
<path d="M18.5 15.5L17.0185 14.991L16.5 16.5L19 24.5L21.3335 23.5L18.5 15.5Z" fill="#F9E109"/>
<path d="M21.335 23.4999L19 24.4999L16.5 16.4999L17.01 15.0249L17.925 17.7749C18.4588 19.3803 19.4408 20.7995 20.755 21.8649L21.335 23.4999Z" fill="#FCBC04"/>
<path d="M27.5001 12L25.4606 21.5H27.5001L29.0001 14.5L27.5001 12Z" fill="#F9E109"/>
<path d="M27.4241 16.6625L28.2241 13.2035L27.5001 12L25.4606 21.5H27.5001L28.1816 18.3205C27.8908 18.1657 27.659 17.9194 27.5221 17.6198C27.3852 17.3201 27.3507 16.9837 27.4241 16.6625Z" fill="#FCBC04"/>
<path d="M13.5 15L17 24.5L19 24L15.5 15H13.5Z" fill="#F9E109"/>
<path d="M13.5 15L17 24.5L18 24.25L14.429 15H13.5Z" fill="#FCBC04"/>
<path d="M24.5 13.5L23 25.5L25 25L27 14.5L24.5 13.5Z" fill="#F9E109"/>
<path d="M25.86 20.485L25 25L23 25.5L24.5 13.5L25.47 13.89L25.07 19.505C25.0544 19.7377 25.127 19.9678 25.2734 20.1494C25.4198 20.331 25.6293 20.4508 25.86 20.485Z" fill="#FCBC04"/>
<path d="M24 26H22L22.5 17L24.5 17.5L24 26Z" fill="#F9E109"/>
<path d="M23.366 21.2835L23.479 17.245L22.5 17L22 26H24L24.1965 22.663C23.9413 22.5358 23.7276 22.3385 23.5805 22.0941C23.4334 21.8498 23.359 21.5686 23.366 21.2835Z" fill="#FCBC04"/>
<path d="M26.5 19.5C26.5 21.433 24.4855 23 22 23C19.5145 23 17.5 21.433 17.5 19.5H15L16.5 30.5H27.5L29 19.5H26.5Z" fill="#84D2F4"/>
<path d="M27.775 28.5L27.5 30.5H16.5L15 19.5H17.5C17.5087 19.9231 17.6052 20.3398 17.7834 20.7237C17.9615 21.1075 18.2175 21.4502 18.535 21.73C18.8276 23.6163 19.7853 25.3357 21.2352 26.5773C22.685 27.819 24.5312 28.5009 26.44 28.5H27.775Z" fill="#57B7EB"/>
<path d="M22 28.5C22.8284 28.5 23.5 27.8284 23.5 27C23.5 26.1716 22.8284 25.5 22 25.5C21.1716 25.5 20.5 26.1716 20.5 27C20.5 27.8284 21.1716 28.5 22 28.5Z" fill="#F9E109"/>
<path d="M23.2449 27.835C23.0657 28.1017 22.8055 28.3038 22.5028 28.4115C22.2001 28.5193 21.8708 28.527 21.5634 28.4334C21.2559 28.3399 20.9867 28.1502 20.7952 27.8921C20.6038 27.6341 20.5002 27.3213 20.4999 27C20.4989 26.6939 20.5933 26.3951 20.7699 26.145C21.4807 26.8597 22.3205 27.4331 23.2449 27.835Z" fill="#FCBC04"/>
<path d="M15 25.5H6C5.46957 25.5 4.96086 25.2893 4.58579 24.9142C4.21071 24.5391 4 24.0304 4 23.5C4 22.9696 4.21071 22.4609 4.58579 22.0858C4.96086 21.7107 5.46957 21.5 6 21.5H15C15.5304 21.5 16.0391 21.7107 16.4142 22.0858C16.7893 22.4609 17 22.9696 17 23.5C17 24.0304 16.7893 24.5391 16.4142 24.9142C16.0391 25.2893 15.5304 25.5 15 25.5Z" fill="#F89C8D"/>
<path d="M16 24.5C16.2831 24.4998 16.5628 24.4384 16.82 24.32C16.7234 24.542 16.5861 24.7438 16.415 24.915C16.0388 25.2888 15.5303 25.4991 15 25.5H5.99999C5.6042 25.5003 5.21721 25.3832 4.88802 25.1634C4.55884 24.9437 4.30225 24.6312 4.15074 24.2656C3.99924 23.8999 3.95963 23.4976 4.03693 23.1094C4.11423 22.7212 4.30497 22.3647 4.58499 22.085C4.75621 21.9139 4.95804 21.7765 5.17999 21.68C5.43717 21.5616 5.71688 21.5002 5.99999 21.5H15C15.4861 21.5007 15.9554 21.6784 16.32 22C16.5689 22.215 16.7584 22.4906 16.87 22.8C16.7785 22.9651 16.6444 23.1027 16.4818 23.1985C16.3191 23.2944 16.1338 23.3449 15.945 23.345C15.7803 23.345 15.6179 23.3073 15.47 23.235C15.3244 23.161 15.1633 23.1225 15 23.1225C14.8367 23.1225 14.6756 23.161 14.53 23.235L13.47 23.765C13.3244 23.839 13.1633 23.8775 13 23.8775C12.8367 23.8775 12.6756 23.839 12.53 23.765L11.47 23.235C11.3244 23.161 11.1633 23.1225 11 23.1225C10.8367 23.1225 10.6756 23.161 10.53 23.235L9.46999 23.765C9.32436 23.839 9.16332 23.8775 8.99999 23.8775C8.83665 23.8775 8.67562 23.839 8.52999 23.765L7.46999 23.235C7.32436 23.161 7.16332 23.1225 6.99999 23.1225C6.83665 23.1225 6.67562 23.161 6.52999 23.235L5.72499 23.64C5.63205 23.6846 5.53491 23.7197 5.43499 23.745C5.62187 23.9809 5.85977 24.1714 6.13083 24.3021C6.40188 24.4329 6.69904 24.5006 6.99999 24.5H16Z" fill="#F8664F"/>
<path d="M3 27.5H18V28.5C18 29.0304 17.7893 29.5391 17.4142 29.9142C17.0391 30.2893 16.5304 30.5 16 30.5H5C4.46957 30.5 3.96086 30.2893 3.58579 29.9142C3.21071 29.5391 3 29.0304 3 28.5V27.5Z" fill="#FCBC04"/>
<path d="M11.8999 27.5L11.4999 28L11.0999 27.5H11.8999Z" fill="#E59730"/>
<path d="M11.8999 27.5L11.4999 28L11.0999 27.5H11.8999Z" fill="#E59730"/>
<path d="M16 27.5H5C4.73478 27.5 4.48043 27.3946 4.29289 27.2071C4.10536 27.0196 4 26.7652 4 26.5C4 26.2348 4.10536 25.9804 4.29289 25.7929C4.48043 25.6054 4.73478 25.5 5 25.5H16C16.2652 25.5 16.5196 25.6054 16.7071 25.7929C16.8946 25.9804 17 26.2348 17 26.5C17 26.7652 16.8946 27.0196 16.7071 27.2071C16.5196 27.3946 16.2652 27.5 16 27.5Z" fill="#CC5144"/>
<path d="M12 28L10 25.5H14L12 28Z" fill="#F7F754"/>
<path d="M11.8285 26.036L11.4 25.5H10L12 28L13.1325 26.5845C12.8867 26.6086 12.6388 26.571 12.4111 26.4753C12.1834 26.3795 11.9832 26.2285 11.8285 26.036Z" fill="#F9E109"/>
<path d="M3.5 21.5C3.49993 21.8005 3.58358 22.095 3.74159 22.3506C3.89959 22.6062 4.12568 22.8127 4.3945 22.947L4.7765 23.138C5.0011 23.2505 5.24882 23.309 5.5 23.309C5.75118 23.309 5.9989 23.2505 6.2235 23.138L7.028 22.738C7.17457 22.6648 7.33616 22.6266 7.50001 22.6266C7.66385 22.6266 7.82544 22.6648 7.97201 22.738L9.02801 23.266C9.17457 23.3392 9.33617 23.3774 9.50001 23.3774C9.66385 23.3774 9.82544 23.3392 9.97201 23.266L11.028 22.738C11.1746 22.6648 11.3362 22.6266 11.5 22.6266C11.6639 22.6266 11.8254 22.6648 11.972 22.738L13.028 23.266C13.1746 23.3392 13.3362 23.3774 13.5 23.3774C13.6639 23.3774 13.8255 23.3392 13.972 23.266L15.028 22.738C15.1746 22.6648 15.3362 22.6266 15.5 22.6266C15.6639 22.6266 15.8255 22.6648 15.972 22.738C16.1331 22.8185 16.3121 22.8565 16.492 22.8483C16.6719 22.8401 16.8468 22.786 16.9999 22.6912C17.153 22.5964 17.2793 22.464 17.3669 22.3066C17.4544 22.1493 17.5003 21.9721 17.5 21.792V21.5H3.5Z" fill="#C4F236"/>
<path d="M13 16.5H8C6.67392 16.5 5.40215 17.0268 4.46447 17.9645C3.52678 18.9021 3 20.1739 3 21.5H18C18 20.1739 17.4732 18.9021 16.5355 17.9645C15.5979 17.0268 14.3261 16.5 13 16.5Z" fill="#FCBC04"/>
<path d="M18 21.5001H3C3.00046 20.4079 3.35851 19.3459 4.01943 18.4764C4.68035 17.6069 5.60778 16.9778 6.66 16.6851C6.91985 17.637 7.48542 18.4772 8.26963 19.0762C9.05383 19.6752 10.0132 19.9998 11 20.0001H17.77C17.9232 20.4853 18.0008 20.9912 18 21.5001Z" fill="#E59730"/>
<path d="M18 28.5C18 29.0304 17.7893 29.5391 17.4142 29.9142C17.0391 30.2893 16.5304 30.5 16 30.5H5C4.46957 30.5 3.96086 30.2893 3.58579 29.9142C3.21071 29.5391 3 29.0304 3 28.5V27.5H4.065C4.17516 27.9294 4.42514 28.3099 4.77551 28.5815C5.12587 28.8531 5.55669 29.0004 6 29H16.5C17.0413 29.0022 17.5683 28.8265 18 28.5Z" fill="#E59730"/>
<path d="M17.5001 21.5V21.79C17.5023 21.8609 17.4939 21.9316 17.4751 22H4.35013C4.49473 22.1887 4.68134 22.3411 4.89513 22.445L5.27513 22.64C5.50069 22.751 5.74873 22.8087 6.00013 22.8087C6.25152 22.8087 6.49956 22.751 6.72513 22.64L7.53013 22.235C7.67576 22.161 7.83679 22.1225 8.00012 22.1225C8.16346 22.1225 8.32449 22.161 8.47012 22.235L9.53012 22.765C9.67576 22.839 9.83679 22.8775 10.0001 22.8775C10.1635 22.8775 10.3245 22.839 10.4701 22.765L11.5301 22.235C11.6758 22.161 11.8368 22.1225 12.0001 22.1225C12.1635 22.1225 12.3245 22.161 12.4701 22.235L13.5301 22.765C13.6757 22.839 13.8368 22.8775 14.0001 22.8775C14.1635 22.8775 14.3245 22.839 14.4701 22.765L15.5301 22.235C15.6757 22.161 15.8368 22.1225 16.0001 22.1225C16.1634 22.1225 16.3245 22.161 16.4701 22.235C16.6143 22.3072 16.7732 22.3452 16.9345 22.3461C17.0958 22.3469 17.2551 22.3106 17.4001 22.24C17.3143 22.4207 17.1791 22.5735 17.01 22.6805C16.841 22.7876 16.6452 22.8446 16.4451 22.845C16.2805 22.845 16.118 22.8073 15.9701 22.735C15.8245 22.661 15.6635 22.6225 15.5001 22.6225C15.3368 22.6225 15.1757 22.661 15.0301 22.735L13.9701 23.265C13.8245 23.339 13.6635 23.3775 13.5001 23.3775C13.3368 23.3775 13.1758 23.339 13.0301 23.265L11.9701 22.735C11.8245 22.661 11.6635 22.6225 11.5001 22.6225C11.3368 22.6225 11.1758 22.661 11.0301 22.735L9.97012 23.265C9.82449 23.339 9.66346 23.3775 9.50012 23.3775C9.33679 23.3775 9.17576 23.339 9.03012 23.265L7.97013 22.735C7.82449 22.661 7.66346 22.6225 7.50013 22.6225C7.33679 22.6225 7.17576 22.661 7.03013 22.735L6.22513 23.14C5.99956 23.251 5.75152 23.3087 5.50013 23.3087C5.24873 23.3087 5.00069 23.251 4.77513 23.14L4.39513 22.945C4.12564 22.8121 3.89887 22.6062 3.74065 22.3507C3.58242 22.0952 3.49909 21.8005 3.50013 21.5H17.5001Z" fill="#A1D51C"/>
<path d="M11.5 19C11.7761 19 12 18.7761 12 18.5C12 18.2239 11.7761 18 11.5 18C11.2239 18 11 18.2239 11 18.5C11 18.7761 11.2239 19 11.5 19Z" fill="#F9E109"/>
<path d="M9.5 18.5C9.77614 18.5 10 18.2761 10 18C10 17.7239 9.77614 17.5 9.5 17.5C9.22386 17.5 9 17.7239 9 18C9 18.2761 9.22386 18.5 9.5 18.5Z" fill="#F9E109"/>
<path d="M8 19.5C8.27614 19.5 8.5 19.2761 8.5 19C8.5 18.7239 8.27614 18.5 8 18.5C7.72386 18.5 7.5 18.7239 7.5 19C7.5 19.2761 7.72386 19.5 8 19.5Z" fill="#F9E109"/>
<path d="M15.5 19.5C15.7761 19.5 16 19.2761 16 19C16 18.7239 15.7761 18.5 15.5 18.5C15.2239 18.5 15 18.7239 15 19C15 19.2761 15.2239 19.5 15.5 19.5Z" fill="#F9E109"/>
<path d="M6 19C6.27614 19 6.5 18.7761 6.5 18.5C6.5 18.2239 6.27614 18 6 18C5.72386 18 5.5 18.2239 5.5 18.5C5.5 18.7761 5.72386 19 6 19Z" fill="#FCBC04"/>
<path d="M13.5 18.5C13.7761 18.5 14 18.2761 14 18C14 17.7239 13.7761 17.5 13.5 17.5C13.2239 17.5 13 17.7239 13 18C13 18.2761 13.2239 18.5 13.5 18.5Z" fill="#F9E109"/>
<path d="M8.45488 19.21C8.40745 19.3141 8.32573 19.3988 8.22339 19.4499C8.12104 19.5011 8.00424 19.5156 7.89249 19.491C7.78075 19.4664 7.68081 19.4043 7.60936 19.3149C7.5379 19.2256 7.49926 19.1144 7.49989 19C7.5007 18.9182 7.5211 18.8379 7.55938 18.7657C7.59766 18.6935 7.6527 18.6315 7.71988 18.585H7.72488C7.94437 18.8196 8.18919 19.0293 8.45488 19.21Z" fill="#FCBC04"/>
</svg>
