<svg width="32" height="32" viewBox="0 0 32 32" fill="none" xmlns="http://www.w3.org/2000/svg">
<g clip-path="url(#clip0)">
<path d="M30.3881 29.5622C30.2228 28.7072 30.1396 27.8385 30.1396 26.9678V16.2812L11.3073 14.6123V27.2261C11.3073 27.9255 11.2536 28.624 11.1467 29.3152L11.0968 29.6379C10.9047 30.8796 11.8652 32 13.1216 32H28.3765C29.664 32 30.6325 30.8264 30.3881 29.5622Z" fill="#F4DBB3"/>
<path d="M30.3882 29.5622C30.223 28.7073 30.1397 27.8385 30.1397 26.9678V16.2812H28.7367V26.9678C28.7367 27.8386 28.8199 28.7074 28.9853 29.5622C29.2297 30.8264 28.2612 32.0001 26.9736 32.0001H28.3766C29.6642 32.0001 30.6327 30.8264 30.3882 29.5622Z" fill="#EAC89F"/>
<path d="M11.4485 12.6398H30.0331L22.985 7.00397C21.6728 5.95473 19.8087 5.95473 18.4965 7.00397L11.4485 12.6398Z" fill="#FFF3BE"/>
<path d="M22.9847 7.00408C22.1344 6.32416 21.0524 6.08541 20.0389 6.28669C20.5894 6.39601 21.1198 6.63476 21.5817 7.00408L28.6298 12.6399H30.0327L22.9847 7.00408Z" fill="#FFEA8C"/>
<path d="M30.765 16.2811H10.7333C10.3925 16.2811 10.1162 16.0049 10.1162 15.6641V12.3377C10.1162 11.9969 10.3925 11.7206 10.7333 11.7206H30.765C31.1058 11.7206 31.382 11.9969 31.382 12.3377V15.6641C31.3821 16.0049 31.1058 16.2811 30.765 16.2811Z" fill="#918291"/>
<path d="M30.7648 11.7206H29.3618C29.7026 11.7206 29.9789 11.9969 29.9789 12.3377V15.6641C29.9789 16.0049 29.7026 16.2811 29.3618 16.2811H30.7648C31.1056 16.2811 31.3819 16.0049 31.3819 15.6641V12.3377C31.3819 11.9969 31.1057 11.7206 30.7648 11.7206Z" fill="#7A6D79"/>
<path d="M20.7458 1.18761V4.01243L10.6497 4.60575L0.617432 4.01243V1.18761C0.617432 0.532024 1.14946 0 1.80568 0H8.35454L10.776 0.456435L13.1975 0H19.5582C20.2137 0 20.7458 0.532024 20.7458 1.18761Z" fill="#FFD15B"/>
<path d="M18.2626 32H3.00777C1.7514 32 0.790882 30.8795 0.982946 29.6379L1.03285 29.3153C1.13979 28.624 1.19349 27.9256 1.19349 27.2261V8.78619C1.19349 8.08676 1.13979 7.3883 1.03285 6.69705L0.617554 4.01233H20.7456L20.2742 6.45019C20.1089 7.30511 20.0257 8.17387 20.0257 9.04457V26.9678C20.0257 27.8385 20.1088 28.7073 20.2742 29.5622C20.5187 30.8263 19.5502 32 18.2626 32Z" fill="#F4DBB3"/>
<path d="M20.2742 29.5622C20.109 28.7072 20.0257 27.8385 20.0257 26.9678V9.04457C20.0257 8.17381 20.1089 7.30505 20.2742 6.45019L20.7456 4.01233H19.3426L18.8712 6.45019C18.706 7.30511 18.6227 8.17387 18.6227 9.04457V26.9678C18.6227 27.8385 18.7059 28.7072 18.8712 29.5622C19.1157 30.8264 18.1472 32 16.8596 32H18.2626C19.5502 32 20.5186 30.8264 20.2742 29.5622Z" fill="#EAC89F"/>
<path d="M19.5584 0H18.1554C18.811 0 19.343 0.532024 19.343 1.18761V4.01243H20.746V1.18761C20.7459 0.532024 20.2139 0 19.5584 0Z" fill="#FFC344"/>
<path d="M13.1976 0V1.34851C13.1976 1.71158 12.9033 2.00583 12.5403 2.00583H9.01206C8.64898 2.00583 8.35474 1.71152 8.35474 1.34851V0H13.1976Z" fill="#C3AFF0"/>
<path d="M11.9012 0V1.34851C11.9012 1.71158 11.6069 2.00583 11.2439 2.00583H12.5404C12.9034 2.00583 13.1978 1.71152 13.1978 1.34851V0H11.9012Z" fill="#AA96E6"/>
<path d="M13.8993 21.3995C14.8753 20.7686 15.4283 19.8886 15.1345 19.4341C14.8406 18.9795 13.8112 19.1225 12.8352 19.7534C11.8592 20.3843 11.3062 21.2642 11.6 21.7188C11.8939 22.1734 12.9233 22.0304 13.8993 21.3995Z" fill="#FFF3BE"/>
<path d="M15.1301 19.4307C14.9506 19.1532 14.4967 19.0989 13.9483 19.2421C14.0452 19.2859 14.123 19.3483 14.1762 19.4307C14.47 19.8852 13.9172 20.765 12.9414 21.3957C12.5616 21.6413 12.174 21.8125 11.8245 21.9038C12.2621 22.1014 13.0964 21.9122 13.8952 21.3957C14.871 20.765 15.4239 19.8852 15.1301 19.4307Z" fill="#FFEA8C"/>
<path d="M15.7055 17.0663C16.7489 16.555 17.4017 15.7467 17.1636 15.2607C16.9255 14.7748 15.8866 14.7953 14.8432 15.3065C13.7998 15.8177 13.147 16.6261 13.3851 17.1121C13.6232 17.598 14.6621 17.5775 15.7055 17.0663Z" fill="#FFF3BE"/>
<path d="M17.1619 15.2637C17.0004 14.934 16.4702 14.8376 15.8201 14.9692C16.0034 15.0254 16.1393 15.1233 16.2081 15.2637C16.4461 15.7497 15.7932 16.5579 14.7497 17.069C14.4141 17.2334 14.0793 17.3467 13.7711 17.409C14.2221 17.5475 14.9615 17.4325 15.7035 17.069C16.747 16.558 17.3999 15.7497 17.1619 15.2637Z" fill="#FFEA8C"/>
<path d="M8.30187 19.9444C8.8284 19.8199 9.0386 18.8025 8.77136 17.672C8.50413 16.5414 7.86065 15.7259 7.33411 15.8503C6.80758 15.9748 6.59738 16.9922 6.86462 18.1227C7.13185 19.2532 7.77533 20.0688 8.30187 19.9444Z" fill="#FFF3BE"/>
<path d="M8.77664 17.6725C8.50918 16.5418 7.86545 15.7262 7.33883 15.8508C7.21141 15.881 7.10273 15.9638 7.01465 16.0874C7.34997 16.3986 7.65793 16.9755 7.82283 17.6725C8.02558 18.5296 7.95379 19.3214 7.67783 19.7087C7.88637 19.9022 8.10555 19.9931 8.30746 19.9454C8.83408 19.8208 9.04417 18.8032 8.77664 17.6725Z" fill="#FFEA8C"/>
<path d="M10.2073 15.3825C10.7155 15.1963 10.8034 14.161 10.4037 13.0699C10.004 11.9789 9.26804 11.2453 8.75991 11.4315C8.25177 11.6176 8.16386 12.653 8.56356 13.744C8.96326 14.8351 9.6992 15.5686 10.2073 15.3825Z" fill="#FFF3BE"/>
<path d="M10.3997 13.0757C10.0004 11.9845 9.26485 11.2507 8.75665 11.4366C8.65756 11.4729 8.5747 11.5418 8.50806 11.6368C8.86057 11.917 9.21128 12.4346 9.4459 13.0757C9.76732 13.9541 9.77247 14.796 9.49722 15.188C9.74459 15.3847 9.9928 15.4647 10.2024 15.3881C10.7106 15.2021 10.7989 14.1668 10.3997 13.0757Z" fill="#FFEA8C"/>
<path d="M8.53917 28.5452C8.49301 28.5452 8.44639 28.5385 8.40048 28.5248C8.19631 28.4635 8.05627 28.2757 8.05627 28.0625C8.05627 24.322 9.45127 20.3413 10.6214 17.6604C11.8838 14.7684 13.1278 12.7807 13.1801 12.6975C13.3221 12.4718 13.6201 12.4039 13.8458 12.5459C14.0716 12.6878 14.1396 12.9859 13.9976 13.2117C13.9513 13.2853 9.68666 20.1386 9.09083 26.6124C10.1734 25.4349 12.1705 23.6864 15.0696 22.8176C15.325 22.7411 15.5942 22.8861 15.6708 23.1416C15.7473 23.3971 15.6023 23.6662 15.3468 23.7428C11.1845 24.9901 8.96431 28.2948 8.94236 28.3281C8.85145 28.466 8.69846 28.5452 8.53917 28.5452Z" fill="#918291"/>
<path d="M8.73323 26.0187C8.51174 26.0187 8.31208 25.8654 8.26224 25.6402C7.40281 21.7608 4.41258 19.4297 4.38252 19.4066C4.17107 19.2444 4.13077 18.9415 4.2927 18.7298C4.45463 18.5182 4.75718 18.4776 4.96895 18.6393C5.10319 18.7417 8.26714 21.1971 9.20512 25.4313C9.26281 25.6917 9.09849 25.9496 8.83811 26.0072C8.80296 26.015 8.7678 26.0187 8.73323 26.0187Z" fill="#918291"/>
<path d="M21.9152 9.12683C22.1795 9.12683 22.3937 8.91262 22.3937 8.64837C22.3937 8.38413 22.1795 8.16992 21.9152 8.16992C21.651 8.16992 21.4368 8.38413 21.4368 8.64837C21.4368 8.91262 21.651 9.12683 21.9152 9.12683Z" fill="#FFD15B"/>
<path d="M23.4931 10.2125C23.7574 10.2125 23.9716 9.99832 23.9716 9.73407C23.9716 9.46983 23.7574 9.25562 23.4931 9.25562C23.2289 9.25562 23.0146 9.46983 23.0146 9.73407C23.0146 9.99832 23.2289 10.2125 23.4931 10.2125Z" fill="#FFD15B"/>
<path d="M27.338 29.9487H25.4176C25.1509 29.9487 24.9347 29.7325 24.9347 29.4658C24.9347 29.1991 25.1509 28.9829 25.4176 28.9829H27.338C27.6046 28.9829 27.8209 29.1991 27.8209 29.4658C27.8209 29.7325 27.6046 29.9487 27.338 29.9487Z" fill="#EDF4FF"/>
<path d="M15.3862 12.1918C16.1263 11.296 16.3881 10.2903 15.9709 9.94561C15.5537 9.6009 14.6154 10.0477 13.8753 10.9435C13.1352 11.8393 12.8734 12.845 13.2906 13.1897C13.7078 13.5344 14.6461 13.0876 15.3862 12.1918Z" fill="#FFF3BE"/>
<path d="M15.9694 9.94913C15.762 9.77773 15.4256 9.80213 15.049 9.9799C15.4174 10.3504 15.15 11.3245 14.4306 12.1949C14.0585 12.6452 13.6363 12.9818 13.2555 13.1616C13.2662 13.1724 13.2772 13.1827 13.2889 13.1924C13.706 13.5371 14.6442 13.0905 15.3844 12.1949C16.1246 11.2993 16.3865 10.2939 15.9694 9.94913Z" fill="#FFEA8C"/>
</g>
<defs>
<clipPath id="clip0">
<rect width="32" height="32" fill="white"/>
</clipPath>
</defs>
</svg>
