<svg width="20" height="20" viewBox="0 0 20 20" fill="none" xmlns="http://www.w3.org/2000/svg">
<path d="M10 18.0417C9.74169 18.0417 9.49169 18.0084 9.28335 17.9334C6.10002 16.8417 1.04169 12.9667 1.04169 7.24171C1.04169 4.32504 3.40002 1.95837 6.30002 1.95837C7.70835 1.95837 9.02502 2.50837 10 3.49171C10.975 2.50837 12.2917 1.95837 13.7 1.95837C16.6 1.95837 18.9584 4.33337 18.9584 7.24171C18.9584 12.975 13.9 16.8417 10.7167 17.9334C10.5084 18.0084 10.2584 18.0417 10 18.0417ZM6.30002 3.20837C4.09169 3.20837 2.29169 5.01671 2.29169 7.24171C2.29169 12.9334 7.76669 16.1 9.69169 16.7584C9.84169 16.8084 10.1667 16.8084 10.3167 16.7584C12.2334 16.1 17.7167 12.9417 17.7167 7.24171C17.7167 5.01671 15.9167 3.20837 13.7084 3.20837C12.4417 3.20837 11.2667 3.80004 10.5084 4.82504C10.275 5.14171 9.74169 5.14171 9.50835 4.82504C8.73335 3.79171 7.56669 3.20837 6.30002 3.20837Z" fill="white"/>
</svg>
