<svg width="20" height="20" viewBox="0 0 20 20" fill="none" xmlns="http://www.w3.org/2000/svg">
<path d="M9.99999 18.0417C9.74166 18.0417 9.49166 18.0084 9.28332 17.9334C6.09999 16.8417 1.04166 12.9667 1.04166 7.24171C1.04166 4.32504 3.39999 1.95837 6.29999 1.95837C7.70832 1.95837 9.02499 2.50837 9.99999 3.49171C10.975 2.50837 12.2917 1.95837 13.7 1.95837C16.6 1.95837 18.9583 4.33337 18.9583 7.24171C18.9583 12.975 13.9 16.8417 10.7167 17.9334C10.5083 18.0084 10.2583 18.0417 9.99999 18.0417ZM6.29999 3.20837C4.09166 3.20837 2.29166 5.01671 2.29166 7.24171C2.29166 12.9334 7.76666 16.1 9.69166 16.7584C9.84166 16.8084 10.1667 16.8084 10.3167 16.7584C12.2333 16.1 17.7167 12.9417 17.7167 7.24171C17.7167 5.01671 15.9167 3.20837 13.7083 3.20837C12.4417 3.20837 11.2667 3.80004 10.5083 4.82504C10.275 5.14171 9.74166 5.14171 9.50832 4.82504C8.73332 3.79171 7.56666 3.20837 6.29999 3.20837Z" fill="#383F47"/>
</svg>
