<svg width="32" height="32" viewBox="0 0 32 32" fill="none" xmlns="http://www.w3.org/2000/svg">
<path d="M10.6667 29.7599C10.2933 29.7599 9.90663 29.6666 9.55997 29.4799C8.79997 29.0799 8.33332 28.2799 8.33332 27.4266V25.5333C4.30666 25.12 1.66666 22.1599 1.66666 17.9199V9.91996C1.66666 5.3333 4.74666 2.2533 9.33332 2.2533H22.6667C27.2533 2.2533 30.3333 5.3333 30.3333 9.91996V17.9199C30.3333 22.5065 27.2533 25.5865 22.6667 25.5865H17.64L11.96 29.3733C11.5733 29.6267 11.12 29.7599 10.6667 29.7599ZM9.33332 4.23995C5.89332 4.23995 3.66666 6.46662 3.66666 9.90662V17.9067C3.66666 21.3467 5.89332 23.5734 9.33332 23.5734C9.87999 23.5734 10.3333 24.0267 10.3333 24.5734V27.4134C10.3333 27.5867 10.44 27.6667 10.5067 27.7067C10.5733 27.7467 10.7067 27.7867 10.8533 27.6933L16.7867 23.7467C16.9467 23.64 17.1467 23.5734 17.3467 23.5734H22.68C26.12 23.5734 28.3467 21.3467 28.3467 17.9067V9.90662C28.3467 6.46662 26.12 4.23995 22.68 4.23995H9.33332Z" fill="#05A85E"/>
<path d="M15.9998 16.1466C15.4531 16.1466 14.9998 15.6933 14.9998 15.1466V14.8667C14.9998 13.32 16.1331 12.56 16.5597 12.2666C17.0531 11.9333 17.2131 11.7067 17.2131 11.36C17.2131 10.6933 16.6664 10.1466 15.9998 10.1466C15.3331 10.1466 14.7865 10.6933 14.7865 11.36C14.7865 11.9067 14.3331 12.36 13.7865 12.36C13.2398 12.36 12.7865 11.9067 12.7865 11.36C12.7865 9.58665 14.2264 8.14661 15.9998 8.14661C17.7731 8.14661 19.2131 9.58665 19.2131 11.36C19.2131 12.88 18.0931 13.64 17.6798 13.92C17.1598 14.2666 16.9998 14.4933 16.9998 14.8667V15.1466C16.9998 15.7066 16.5464 16.1466 15.9998 16.1466Z" fill="#05A85E"/>
<path d="M16 19.4667C15.44 19.4667 15 19.0133 15 18.4667C15 17.92 15.4533 17.4667 16 17.4667C16.5467 17.4667 17 17.92 17 18.4667C17 19.0133 16.56 19.4667 16 19.4667Z" fill="#05A85E"/>
</svg>
