<svg width="12" height="14" viewBox="0 0 12 14" fill="none" xmlns="http://www.w3.org/2000/svg">
<path fill-rule="evenodd" clip-rule="evenodd" d="M3.61418 13.4483L3.8349 11.9992L3.34321 11.9873H0.99527L2.627 1.2937C2.63209 1.26132 2.64852 1.23126 2.67252 1.20987C2.69664 1.18849 2.72738 1.17676 2.75953 1.17676H6.71851C8.03293 1.17676 8.93995 1.45939 9.41344 2.01734C9.63546 2.27908 9.77686 2.55267 9.84531 2.85364C9.91707 3.16951 9.91825 3.54685 9.84826 4.00715L9.84318 4.04063V4.33561L10.0652 4.46563C10.2521 4.56815 10.4007 4.68546 10.5147 4.81975C10.7046 5.04361 10.8274 5.32808 10.8793 5.66521C10.933 6.012 10.9152 6.42478 10.8274 6.89205C10.7261 7.42946 10.5623 7.89759 10.3411 8.28055C10.1378 8.63344 9.87865 8.92622 9.57091 9.15302C9.27712 9.36857 8.92812 9.53219 8.53349 9.63691C8.15104 9.7398 7.71502 9.79173 7.23681 9.79173H6.92871C6.70846 9.79173 6.49448 9.87372 6.32648 10.0207C6.15801 10.1708 6.04664 10.3758 6.01248 10.6L5.98918 10.7305L5.59916 13.2848L5.58155 13.3785C5.57682 13.4082 5.56878 13.423 5.55696 13.433C5.54643 13.4422 5.5313 13.4483 5.51652 13.4483H3.61418Z" fill="#28356A"/>
<path fill-rule="evenodd" clip-rule="evenodd" d="M10.2756 4.07458C10.2639 4.15267 10.2503 4.23246 10.2352 4.31445C9.71313 7.08509 7.92688 8.04225 5.64562 8.04225H4.48407C4.20506 8.04225 3.96991 8.25156 3.92652 8.53603L3.16338 13.5393C3.13513 13.7261 3.27439 13.8944 3.4567 13.8944H5.51688C5.76077 13.8944 5.96802 13.7112 6.00644 13.4626L6.02666 13.3544L6.41455 10.8102L6.4395 10.6707C6.47745 10.4211 6.68517 10.2378 6.92907 10.2378H7.23716C9.23314 10.2378 10.7957 9.40032 11.2524 6.97646C11.4431 5.96396 11.3444 5.11849 10.8396 4.52389C10.6868 4.34464 10.4973 4.1958 10.2756 4.07458Z" fill="#298FC2"/>
<path fill-rule="evenodd" clip-rule="evenodd" d="M9.72922 3.84956C9.64942 3.82549 9.56714 3.80374 9.48272 3.78407C9.39784 3.76488 9.31094 3.7479 9.22145 3.73299C8.90827 3.68069 8.56507 3.65588 8.19751 3.65588H5.09447C5.01798 3.65588 4.94539 3.67372 4.88049 3.70598C4.73732 3.7771 4.63103 3.91714 4.60526 4.08857L3.94509 8.41011L3.92618 8.53609C3.96957 8.25162 4.20471 8.0423 4.48372 8.0423H5.64528C7.92654 8.0423 9.71279 7.08467 10.2349 4.31451C10.2505 4.23252 10.2636 4.15273 10.2753 4.07464C10.1432 4.00218 10.0002 3.94023 9.84615 3.88744C9.80808 3.87437 9.76883 3.86178 9.72922 3.84956Z" fill="#22284F"/>
<path fill-rule="evenodd" clip-rule="evenodd" d="M4.60545 4.08862C4.63122 3.91718 4.7375 3.77715 4.88067 3.70652C4.94605 3.67414 5.01817 3.6563 5.09466 3.6563H8.1977C8.56526 3.6563 8.90846 3.68123 9.22164 3.73353C9.31113 3.74831 9.39803 3.76542 9.48291 3.7846C9.56733 3.80415 9.64961 3.82603 9.72941 3.84998C9.76902 3.8622 9.80827 3.8749 9.84669 3.88749C10.0007 3.94028 10.1439 4.00272 10.276 4.07469C10.4313 3.05082 10.2747 2.3537 9.73911 1.72245C9.14858 1.0274 8.0829 0.72998 6.71918 0.72998H2.76008C2.48155 0.72998 2.24392 0.9393 2.20088 1.22426L0.551889 12.0279C0.519377 12.2416 0.678862 12.4344 0.887409 12.4344H3.33158L4.60545 4.08862Z" fill="#28356A"/>
</svg>
