<svg width="32" height="32" viewBox="0 0 32 32" fill="none" xmlns="http://www.w3.org/2000/svg">
<g clip-path="url(#clip0)">
<path d="M21.1522 31.73H11.3895C5.39842 31.73 0.542053 26.8736 0.542053 20.8826H31.9996C31.9996 26.8736 27.1433 31.73 21.1522 31.73Z" fill="#E5E5E5"/>
<path d="M25.3995 5.69616H24.9494L26.3747 4.27078C27.2442 3.42953 27.3402 2.06822 26.5971 1.11366C25.7906 0.130909 24.3397 -0.0112159 23.3575 0.795284C23.2995 0.843034 23.2437 0.893472 23.1905 0.946597L21.6952 2.44191V1.99172C21.7147 1.10278 21.041 0.350472 20.1554 0.272409C19.2583 0.224159 18.4914 0.912409 18.4431 1.81003C18.4415 1.83985 18.4409 1.86972 18.4409 1.89953V4.61141C18.442 3.71272 17.7147 2.98322 16.816 2.9821C16.7862 2.9821 16.7563 2.98266 16.7265 2.98428C15.8408 3.06291 15.1672 3.81466 15.1867 4.7036V7.32328C15.1877 6.4246 14.4604 5.6951 13.5617 5.69397C13.5319 5.69397 13.502 5.69453 13.4722 5.69616C12.5865 5.77428 11.9129 6.52653 11.9324 7.41547V15.4588H21.1527C22.0514 15.4588 22.7799 14.7304 22.7799 13.8317C22.7799 12.933 22.0514 12.2046 21.1527 12.2046H23.7724C24.6614 12.2241 25.4137 11.5505 25.4917 10.6648C25.54 9.76772 24.8517 9.00078 23.9541 8.95253C23.9243 8.95091 23.8944 8.95035 23.8646 8.95035H25.4917C26.3904 8.95141 27.1199 8.2241 27.121 7.32541C27.121 7.2956 27.1205 7.26572 27.1189 7.23591C27.0408 6.35022 26.2885 5.6766 25.3995 5.69616Z" fill="#88B337"/>
<path d="M24.2473 3.91006L23.4804 3.14319L21.152 5.47157V4.069H20.0673V6.55632L17.8978 8.72582V6.78088H16.813V9.81057L14.6435 11.9801V9.49276H13.5588V13.0648L8.29395 18.3296L9.06088 19.0965L14.3257 13.8317H17.8978V12.747H15.4104L17.5799 10.5774H20.6096V9.49276H18.6647L20.8341 7.32326H23.3215V6.2385H21.9189L24.2473 3.91006Z" fill="#6B962A"/>
<path d="M6.35415 8.95037C4.85721 8.94875 3.6439 7.73544 3.64227 6.2385V5.96731L3.16715 5.611C2.06508 4.78438 1.84158 3.22019 2.66821 2.11806C3.49483 1.01594 5.05896 0.7925 6.16108 1.61906L6.35415 1.76387L6.54671 1.61906C7.64883 0.791937 9.21302 1.01537 10.0396 2.1175C10.0673 2.15437 10.0943 2.19237 10.1198 2.23087C10.8542 3.333 10.6004 4.81638 9.54058 5.61094L9.06602 5.96725V6.23844C9.0644 7.73544 7.85108 8.94875 6.35415 8.95037ZM4.66902 2.20431C4.58765 2.20431 4.50683 2.21137 4.42658 2.22544C4.04365 2.28887 3.70471 2.50912 3.49102 2.83287C3.07558 3.455 3.21821 4.2935 3.81646 4.74312L4.50796 5.26219C4.64465 5.36469 4.7249 5.52525 4.7249 5.69606V6.23844C4.7249 7.13713 5.45333 7.86556 6.35202 7.86556C7.25071 7.86556 7.97915 7.13713 7.97915 6.23844V5.69606C7.97915 5.52519 8.0594 5.36469 8.19608 5.26219L8.88758 4.74312C9.51077 4.27562 9.63715 3.39206 9.16965 2.76887C8.70215 2.14569 7.81858 2.01931 7.1954 2.48681L6.67746 2.87569C6.4844 3.0205 6.21971 3.0205 6.02658 2.87569L5.50808 2.48681C5.26671 2.30412 4.97221 2.20487 4.66902 2.20431Z" fill="#6B962A"/>
<path d="M29.2883 7.32325V6.2385C29.8876 6.2385 30.3731 5.75307 30.3731 5.15375C30.3731 4.55444 29.8876 4.069 29.2883 4.069V2.98425C30.4865 2.98425 31.4578 3.95563 31.4578 5.15375C31.4578 6.35188 30.4865 7.32325 29.2883 7.32325Z" fill="#DE4C3C"/>
<path d="M13.0169 0.272461H11.9322V1.35721H13.0169V0.272461Z" fill="#DE4C3C"/>
<path d="M16.2713 17.6284H15.1865V18.7132H16.2713V17.6284Z" fill="#DE4C3C"/>
<path d="M2.16959 7.86572H1.08484V8.95048H2.16959V7.86572Z" fill="#DE4C3C"/>
<path d="M1.08475 5.69629H0V6.78104H1.08475V5.69629Z" fill="#DE4C3C"/>
<path d="M23.3221 19.2554H22.2373C22.2373 18.6561 21.7519 18.1707 21.1526 18.1707C20.5533 18.1707 20.0678 18.6561 20.0678 19.2554H18.9831C18.9831 18.0573 19.9545 17.0859 21.1526 17.0859C22.3507 17.0859 23.3221 18.0573 23.3221 19.2554Z" fill="#FDB62F"/>
<path d="M6.50817 12.747H5.9658C5.9658 11.8483 5.23736 11.1199 4.33867 11.1199C3.43999 11.1199 2.71155 11.8483 2.71155 12.747H2.16918C1.27049 12.747 0.542053 13.4754 0.542053 14.3741C0.542053 15.2728 1.27049 16.0013 2.16918 16.0013H6.50817C7.40686 16.0013 8.13529 15.2729 8.13529 14.3741C8.13523 13.4754 7.40686 12.747 6.50817 12.747Z" fill="#88B337"/>
<path d="M5.42396 16.0011H3.25446V18.1706H5.42396V16.0011Z" fill="#638724"/>
<path d="M28.7455 12.2046C26.948 12.2046 25.4912 13.6614 25.4912 15.4589C25.4912 17.2563 26.948 18.7131 28.7455 18.7131C30.5429 18.7131 31.9997 17.2563 31.9997 15.4589C31.9997 13.6614 30.5429 12.2046 28.7455 12.2046ZM28.7455 17.086C27.8468 17.086 27.1183 16.3575 27.1183 15.4589C27.1183 14.5602 27.8467 13.8317 28.7455 13.8317C29.6441 13.8317 30.3726 14.5602 30.3726 15.4589C30.3726 16.3576 29.6442 17.086 28.7455 17.086Z" fill="#E5E5E5"/>
<path d="M24.5013 20.8826C20.2166 26.5439 13.9191 29.7417 9.08002 31.4778C9.83877 31.6443 10.6133 31.7289 11.39 31.73H21.1526C27.1438 31.73 32.0002 26.8736 32.0002 20.8826H24.5013Z" fill="#DEDEDE"/>
</g>
<defs>
<clipPath id="clip0">
<rect width="32" height="32" fill="white"/>
</clipPath>
</defs>
</svg>
