<svg width="30" height="30" viewBox="0 0 30 30" fill="none" xmlns="http://www.w3.org/2000/svg">
<g clip-path="url(#clip0)">
<path d="M28.3924 17.9791H26.2359V17.1867C26.9881 17.0561 27.5621 16.3991 27.5621 15.6101C27.5621 14.7275 26.8441 14.0095 25.9615 14.0095H22.7459C22.3274 12.4831 20.9456 11.4102 19.3283 11.4102C19.069 11.4102 18.8127 11.4381 18.562 11.4935C18.2894 10.8393 17.8249 10.2784 17.2233 9.88583C17.0197 9.75289 16.7469 9.81031 16.614 10.0139C16.4811 10.2176 16.5384 10.4904 16.7421 10.6233C17.2891 10.9802 17.6855 11.5219 17.8581 12.1484C17.919 12.3897 18.1984 12.5348 18.4308 12.446C18.7189 12.343 19.0208 12.2908 19.3283 12.2908C20.4594 12.2908 21.4371 12.9886 21.8211 14.0094H8.75543C9.13945 12.9886 10.1171 12.2908 11.2482 12.2908C11.5556 12.2908 11.8577 12.343 12.1457 12.446C12.3782 12.5349 12.6576 12.3897 12.7185 12.1483C13.0358 10.9965 14.0926 10.1921 15.2882 10.1921C15.5314 10.1921 15.7286 9.99494 15.7286 9.75177C15.7286 9.50861 15.5314 9.31144 15.2882 9.31144C13.8477 9.31144 12.5587 10.1894 12.0146 11.4935C11.7639 11.438 11.5074 11.4101 11.2482 11.4101C9.63082 11.4101 8.249 12.4829 7.83059 14.0094H4.03852C3.15592 14.0094 2.43791 14.7274 2.43791 15.6101C2.43791 16.3991 3.01189 17.0561 3.76406 17.1867V17.979H1.60758C0.721172 17.9791 0 18.7003 0 19.5867C0 20.4732 0.721172 21.1943 1.60758 21.1943H3.76406V27.638C3.76406 28.9404 4.82361 30 6.12604 30H23.874C25.1764 30 26.2359 28.9405 26.2359 27.638V21.1943H28.3924C29.2788 21.1943 29.9999 20.4731 29.9999 19.5867C29.9999 18.7003 29.2788 17.9791 28.3924 17.9791ZM1.60758 20.3137C1.20674 20.3137 0.880605 19.9876 0.880605 19.5867C0.880605 19.1858 1.20674 18.8598 1.60758 18.8598H3.76406V20.3137H1.60758ZM23.874 29.1194H6.12604C5.30924 29.1194 4.64467 28.4549 4.64467 27.6381V17.2108H7.30312C7.54635 17.2108 7.74346 17.0136 7.74346 16.7705C7.74346 16.5273 7.54635 16.3302 7.30312 16.3302H4.03852C3.64154 16.3302 3.31852 16.0071 3.31852 15.6101C3.31852 15.2131 3.64154 14.8901 4.03852 14.8901H25.9615C26.3585 14.8901 26.6815 15.2131 26.6815 15.6101C26.6815 16.0071 26.3585 16.3301 25.9615 16.3301H9.06439C8.82117 16.3301 8.62406 16.5273 8.62406 16.7704C8.62406 17.0136 8.82117 17.2108 9.06439 17.2108H25.3553V27.638C25.3553 28.4549 24.6908 29.1194 23.874 29.1194ZM28.3924 20.3137H26.2359V18.8598H28.3924C28.7933 18.8598 29.1193 19.1859 29.1193 19.5867C29.1193 19.9876 28.7933 20.3137 28.3924 20.3137Z" fill="#646D84"/>
<path d="M7.12621 8.23946C6.18947 8.23946 5.42734 9.00153 5.42734 9.93832C5.42734 10.8751 6.18947 11.6372 7.12621 11.6372C8.06295 11.6372 8.82502 10.8751 8.82502 9.93832C8.82502 9.00153 8.06301 8.23946 7.12621 8.23946ZM7.12621 10.7565C6.67498 10.7565 6.30794 10.3895 6.30794 9.93832C6.30794 9.48715 6.67498 9.12012 7.12621 9.12012C7.57738 9.12012 7.94441 9.48715 7.94441 9.93832C7.94441 10.3895 7.57738 10.7565 7.12621 10.7565Z" fill="#646D84"/>
<path d="M9.84277 7.10272C9.84277 8.03946 10.6048 8.80153 11.5416 8.80153C12.4783 8.80153 13.2404 8.03946 13.2404 7.10272C13.2404 6.16598 12.4783 5.40385 11.5416 5.40385C10.6048 5.40385 9.84277 6.16598 9.84277 7.10272ZM12.3598 7.10272C12.3598 7.55389 11.9928 7.92092 11.5416 7.92092C11.0904 7.92092 10.7234 7.55389 10.7234 7.10272C10.7234 6.65155 11.0904 6.28452 11.5416 6.28452C11.9928 6.28452 12.3598 6.65155 12.3598 7.10272Z" fill="#646D84"/>
<path d="M21.8416 10.6245C21.8416 11.5612 22.6037 12.3234 23.5405 12.3234C24.4772 12.3234 25.2393 11.5613 25.2393 10.6245C25.2393 9.68771 24.4772 8.92564 23.5405 8.92564C22.6037 8.92564 21.8416 9.68771 21.8416 10.6245ZM24.3587 10.6245C24.3587 11.0757 23.9917 11.4427 23.5405 11.4427C23.0893 11.4427 22.7223 11.0757 22.7223 10.6245C22.7223 10.1733 23.0893 9.80631 23.5405 9.80631C23.9917 9.80625 24.3587 10.1733 24.3587 10.6245Z" fill="#646D84"/>
<path d="M4.37892 2.89225L7.02126 3.54082C7.2574 3.59877 7.49587 3.45434 7.55388 3.21815C7.61183 2.98201 7.46734 2.74354 7.2312 2.68559L5.07167 2.15555C5.43759 1.4833 6.22363 1.11287 7.00105 1.30359L23.7592 5.4167C24.5366 5.60754 25.0618 6.29988 25.0749 7.06512L8.94226 3.10547C8.70589 3.04734 8.46753 3.19195 8.40964 3.42815C8.35169 3.66428 8.49619 3.90275 8.73232 3.9607L25.3479 8.03883C25.5778 8.09725 25.8235 7.95416 25.8805 7.71615C26.2233 6.31945 25.3659 4.90424 23.9692 4.56141L18.4558 3.20818L18.7059 2.18924C18.8409 1.6391 18.5031 1.08158 17.953 0.946583L14.2172 0.0297662C13.6671 -0.105351 13.1096 0.232501 12.9746 0.782637L12.7245 1.80152L7.21105 0.44836C5.81376 0.105352 4.39908 0.962989 4.0563 2.35969C3.99536 2.58826 4.14812 2.84039 4.37892 2.89225ZM13.8298 0.99252C13.8491 0.913887 13.9288 0.865665 14.0073 0.884942L17.7429 1.80176C17.8214 1.82104 17.8697 1.90072 17.8504 1.9793L17.6004 2.99818L13.5797 2.01147L13.8298 0.99252Z" fill="#646D84"/>
</g>
<defs>
<clipPath id="clip0">
<rect width="30" height="30" fill="white"/>
</clipPath>
</defs>
</svg>
