<svg width="30" height="30" viewBox="0 0 30 30" fill="none" xmlns="http://www.w3.org/2000/svg">
<g clip-path="url(#clip0)">
<path d="M28.4372 10.6662H26.8792L21.6319 6.46984C21.4748 6.34434 21.3068 6.23096 21.1323 6.13288C20.9208 6.01393 20.6528 6.08893 20.5339 6.30057C20.415 6.51209 20.49 6.78003 20.7016 6.89897C20.8347 6.9738 20.9631 7.06045 21.083 7.15631L25.472 10.6662H19.1039V8.67017C19.1039 7.90758 19.1773 7.14131 19.3221 6.39262L19.7496 4.18157C19.7556 4.15175 19.7591 1.52012 19.7591 1.52012C19.7591 0.681958 19.0772 0 18.2389 0H2.08388C1.24531 0 0.563115 0.681958 0.563115 1.52012C0.568213 1.58827 0.553213 4.09556 0.568506 4.1579L0.946428 6.60103C1.04 7.20588 1.0874 7.82292 1.0874 8.43498V23.1694C1.0874 23.4121 1.28415 23.6089 1.52684 23.6089C1.76954 23.6089 1.96629 23.4121 1.96629 23.1694V8.43503C1.96629 7.77815 1.91537 7.11588 1.81494 6.46674L1.51542 4.53025H18.787L18.4591 6.2258C18.3038 7.02934 18.225 7.85175 18.225 8.67017V24.9806C18.225 25.799 18.3038 26.6214 18.4591 27.4249C18.6456 28.2743 17.9292 29.1423 17.06 29.1205H12.3817H3.17786C2.18115 29.142 1.53106 28.099 1.81494 27.1839C1.91537 26.5347 1.96629 25.8725 1.96629 25.2156C1.96629 24.9729 1.76954 24.7762 1.52684 24.7762C1.28415 24.7762 1.0874 24.9729 1.0874 25.2156C1.0874 25.8277 1.03994 26.4447 0.946369 27.0496C0.548585 28.4805 1.6687 30.0354 3.17786 29.9994H26.264C27.6691 30.0346 28.8276 28.6309 28.5259 27.2581C28.3811 26.5101 28.3077 25.7437 28.3077 24.9803V15.6952H28.4372C28.9894 15.6952 29.4386 15.2459 29.4386 14.6938V11.6669C29.4386 11.1151 28.9894 10.6662 28.4372 10.6662ZM12.0112 0.878887V1.6666C12.0112 1.75414 11.94 1.82533 11.8524 1.82533H8.64167C8.55414 1.82533 8.48295 1.75414 8.48295 1.6666V0.878887H12.0112ZM2.08388 0.878887H7.604V1.6666C7.604 2.23876 8.06946 2.70422 8.64161 2.70422H11.8524C12.4245 2.70422 12.89 2.23876 12.89 1.6666V0.878887H18.2389C18.5925 0.878887 18.8802 1.16658 18.8802 1.52012V3.65131H1.442V1.52012C1.442 1.16658 1.72993 0.878887 2.08388 0.878887ZM27.663 27.4251C27.8496 28.2741 27.1328 29.1423 26.264 29.1205H18.8693C19.2843 28.5938 19.4498 27.9184 19.3221 27.258C19.1773 26.5094 19.1039 25.7431 19.1039 24.9805V15.6952H27.4288V24.9803C27.4288 25.7996 27.5076 26.6222 27.663 27.4251ZM28.5597 14.6938C28.5597 14.7614 28.5047 14.8163 28.4372 14.8163H19.1039V11.5451H28.4372C28.5048 11.5451 28.5597 11.5997 28.5597 11.6669V14.6938Z" fill="#646D84"/>
<path d="M14.1311 21.4051C13.6176 21.5138 13.094 21.6851 12.575 21.9141C12.3529 22.0121 12.2524 22.2715 12.3504 22.4936C12.4485 22.7179 12.7131 22.8155 12.9299 22.7183C13.3935 22.5136 13.8589 22.3611 14.3132 22.265C14.5507 22.2147 14.7024 21.9814 14.6522 21.744C14.6018 21.5065 14.3687 21.3548 14.1311 21.4051Z" fill="#646D84"/>
<path d="M14.5779 17.8831C14.159 17.2354 13.0238 17.3028 11.8785 18.0433C11.3963 18.355 10.9955 18.7419 10.7498 19.1328C10.3338 19.7949 10.4926 20.2355 10.6243 20.4391C10.8165 20.7365 11.1597 20.8831 11.5857 20.8831C12.0875 20.8831 12.7042 20.6794 13.3238 20.2789C14.4692 19.5384 14.9966 18.5308 14.5779 17.8831ZM12.8466 19.5408C12.0378 20.0638 11.4402 20.0393 11.3635 19.9641C11.3238 19.8593 11.5467 19.3042 12.3556 18.7813C12.9217 18.4153 13.3843 18.3175 13.6373 18.3175C13.7457 18.3175 13.8156 18.3355 13.8387 18.358C13.8784 18.4629 13.6554 19.018 12.8466 19.5408Z" fill="#646D84"/>
<path d="M16.453 14.1363C16.3464 13.9185 16.0524 13.5551 15.2689 13.5707C14.8073 13.5798 14.2692 13.7238 13.7536 13.9764C12.5287 14.5764 11.8859 15.5145 12.2251 16.2072C12.4096 16.5839 12.8296 16.7756 13.3714 16.7756C13.8258 16.7756 14.3659 16.6408 14.9246 16.3671C16.1495 15.7671 16.7923 14.8289 16.453 14.1363ZM13.0154 15.8229C12.9883 15.7142 13.2753 15.1894 14.1402 14.7657C14.6426 14.5196 15.0524 14.4485 15.3208 14.4485C15.5145 14.4485 15.6347 14.4855 15.6629 14.5206C15.6899 14.6293 15.4029 15.1541 14.538 15.5778C13.6729 16.0015 13.0825 15.9065 13.0154 15.8229Z" fill="#646D84"/>
<path d="M7.01787 14.4363C6.2673 14.6139 5.95044 15.7061 6.26449 17.0334C6.39662 17.5921 6.62694 18.0994 6.91293 18.4618C7.28417 18.9322 7.64592 19.0408 7.90092 19.0408C7.97867 19.0408 8.04652 19.0308 8.10165 19.0177C8.33766 18.9619 8.75724 18.7539 8.91533 17.9881C9.00866 17.5359 8.98728 16.9792 8.85503 16.4205C8.72291 15.8618 8.49258 15.3546 8.20659 14.9922C7.72221 14.3784 7.25382 14.3805 7.01787 14.4363ZM7.21878 15.2919C7.33245 15.2919 7.77875 15.6884 7.99988 16.6229C8.22159 17.5601 7.9983 18.115 7.90185 18.162C7.9015 18.162 7.90121 18.162 7.90086 18.162C7.78719 18.162 7.34089 17.7656 7.11976 16.8311C6.89799 15.8938 7.12135 15.3389 7.21779 15.2919H7.21878Z" fill="#646D84"/>
<path d="M9.57302 14.9091C9.67573 14.9091 9.77728 14.8916 9.87606 14.8554C10.1039 14.7721 10.4959 14.5159 10.5624 13.7368C10.6016 13.2768 10.5145 12.7266 10.3173 12.1874C9.84858 10.9065 8.98276 10.1692 8.25838 10.4341C8.03063 10.5175 7.63859 10.7736 7.57209 11.5527C7.53289 12.0127 7.6199 12.563 7.81718 13.1021C8.22194 14.2084 8.92282 14.9091 9.57302 14.9091ZM8.55802 11.2602C8.56049 11.2599 8.563 11.2597 8.56582 11.2597C8.69033 11.2597 9.16815 11.6046 9.49193 12.4894C9.82286 13.3939 9.66671 13.9714 9.57648 14.0294C9.46451 14.0448 8.97356 13.7047 8.64263 12.8002C8.31164 11.8957 8.46779 11.3183 8.55802 11.2602Z" fill="#646D84"/>
<path d="M4.96262 17.4014C4.76991 17.2543 4.49458 17.2912 4.34722 17.4838C4.19986 17.6764 4.23654 17.9521 4.42896 18.0997C4.45614 18.1205 7.14003 20.2134 7.94286 23.7004C7.83453 24.4598 7.77219 25.2236 7.77219 25.9767C7.77219 26.1658 7.89324 26.3336 8.07259 26.3934C8.11829 26.4087 8.16516 26.4161 8.21157 26.4161C8.34721 26.4161 8.47852 26.3531 8.56312 26.2405C8.5732 26.227 9.58978 24.885 11.1651 23.7457C11.3617 23.6035 11.4059 23.3288 11.2637 23.1321C11.1215 22.9355 10.8467 22.8913 10.6501 23.0336C9.84495 23.6158 9.18327 24.2387 8.70656 24.7375C9.16639 19.4477 12.3469 13.8557 13.044 12.685C13.0987 12.6935 13.1549 12.6977 13.2126 12.6977C13.7899 12.6977 14.5099 12.2757 15.1311 11.5241C15.4968 11.0815 15.7623 10.5918 15.8787 10.145C16.0758 9.38832 15.7916 9.01614 15.6046 8.86163C15.01 8.37033 13.9479 8.77679 13.079 9.82817C12.7133 10.2707 12.4477 10.7605 12.3314 11.2072C12.2226 11.6247 12.2607 11.9247 12.3478 12.1361C12.0566 12.6157 11.0881 14.2624 10.1066 16.5107C9.46627 17.9776 8.75232 19.8724 8.28458 21.89C7.12819 19.0806 5.06556 17.48 4.96262 17.4014ZM13.7565 10.388C14.3041 9.7254 14.8227 9.52929 14.9959 9.52929C15.0168 9.52929 15.0327 9.53211 15.0429 9.53738C15.1124 9.62533 15.0672 10.2217 14.4535 10.9642C13.84 11.7066 13.2627 11.8634 13.1671 11.8148C13.0976 11.7269 13.1429 11.1304 13.7565 10.388Z" fill="#646D84"/>
<path d="M20.8251 8.35922C20.8489 8.11992 20.6742 7.90663 20.4349 7.88282C20.1957 7.85901 19.9824 8.03371 19.9586 8.27301C19.9348 8.51231 20.1094 8.7256 20.3487 8.7494C20.588 8.77321 20.8012 8.59852 20.8251 8.35922Z" fill="#646D84"/>
<path d="M21.8197 9.73305C22.0602 9.73305 22.2551 9.53811 22.2551 9.29764C22.2551 9.05717 22.0602 8.86223 21.8197 8.86223C21.5793 8.86223 21.3843 9.05717 21.3843 9.29764C21.3843 9.53811 21.5793 9.73305 21.8197 9.73305Z" fill="#646D84"/>
<path d="M25.3185 26.8143H23.5709C23.3282 26.8143 23.1314 27.011 23.1314 27.2537C23.1314 27.4964 23.3282 27.6932 23.5709 27.6932H25.3185C25.5612 27.6932 25.758 27.4964 25.758 27.2537C25.758 27.011 25.5612 26.8143 25.3185 26.8143Z" fill="#646D84"/>
</g>
<defs>
<clipPath id="clip0">
<rect width="30" height="30" fill="white"/>
</clipPath>
</defs>
</svg>
