<svg width="16" height="16" viewBox="0 0 16 16" fill="none" xmlns="http://www.w3.org/2000/svg">
<path d="M9.8 15.1666H6.2C2.90667 15.1666 1.50667 13.76 1.50667 10.4733V7.47998C1.50667 7.20665 1.73333 6.97998 2.00667 6.97998C2.28 6.97998 2.50667 7.20665 2.50667 7.47998V10.4733C2.50667 13.2 3.47333 14.1666 6.2 14.1666H9.79333C12.52 14.1666 13.4867 13.2 13.4867 10.4733V7.47998C13.4867 7.20665 13.7133 6.97998 13.9867 6.97998C14.26 6.97998 14.4867 7.20665 14.4867 7.47998V10.4733C14.4933 13.76 13.0867 15.1666 9.8 15.1666Z" fill="#05A85E"/>
<path d="M8.00001 8.50004C7.26667 8.50004 6.60001 8.21337 6.12667 7.68671C5.65334 7.16004 5.43334 6.47337 5.50667 5.74004L5.95334 1.28671C5.98001 1.03337 6.19334 0.833374 6.45334 0.833374H9.56667C9.82667 0.833374 10.04 1.02671 10.0667 1.28671L10.5133 5.74004C10.5867 6.47337 10.3667 7.16004 9.89334 7.68671C9.40001 8.21337 8.73334 8.50004 8.00001 8.50004ZM6.90001 1.83337L6.50001 5.84004C6.45334 6.28671 6.58667 6.70671 6.86667 7.01337C7.43334 7.64004 8.56667 7.64004 9.13334 7.01337C9.41334 6.70004 9.54667 6.28004 9.50001 5.84004L9.10001 1.83337H6.90001Z" fill="#05A85E"/>
<path d="M12.2067 8.50004C10.8533 8.50004 9.64667 7.40671 9.50667 6.06004L9.04001 1.38671C9.02667 1.24671 9.07334 1.10671 9.16667 1.00004C9.26001 0.893374 9.39334 0.833374 9.54001 0.833374H11.5733C13.5333 0.833374 14.4467 1.65337 14.72 3.66671L14.9067 5.52004C14.9867 6.30671 14.7467 7.05337 14.2333 7.62004C13.72 8.18671 13 8.50004 12.2067 8.50004ZM10.0933 1.83337L10.5067 5.96004C10.5933 6.79337 11.3667 7.50004 12.2067 7.50004C12.7133 7.50004 13.1667 7.30671 13.4933 6.95337C13.8133 6.60004 13.96 6.12671 13.9133 5.62004L13.7267 3.78671C13.52 2.28004 13.0333 1.83337 11.5733 1.83337H10.0933Z" fill="#05A85E"/>
<path d="M3.76 8.50004C2.96667 8.50004 2.24667 8.18671 1.73333 7.62004C1.22 7.05337 0.979999 6.30671 1.06 5.52004L1.24 3.68671C1.52 1.65337 2.43333 0.833374 4.39333 0.833374H6.42667C6.56667 0.833374 6.7 0.893374 6.8 1.00004C6.9 1.10671 6.94 1.24671 6.92667 1.38671L6.46 6.06004C6.32 7.40671 5.11333 8.50004 3.76 8.50004ZM4.39333 1.83337C2.93333 1.83337 2.44667 2.27337 2.23333 3.80004L2.05333 5.62004C2 6.12671 2.15333 6.60004 2.47333 6.95337C2.79333 7.30671 3.24667 7.50004 3.76 7.50004C4.6 7.50004 5.38 6.79337 5.46 5.96004L5.87333 1.83337H4.39333Z" fill="#05A85E"/>
<path d="M9.66666 15.1667H6.33333C6.05999 15.1667 5.83333 14.94 5.83333 14.6667V13C5.83333 11.6 6.6 10.8334 7.99999 10.8334C9.39999 10.8334 10.1667 11.6 10.1667 13V14.6667C10.1667 14.94 9.93999 15.1667 9.66666 15.1667ZM6.83333 14.1667H9.16666V13C9.16666 12.16 8.83999 11.8334 7.99999 11.8334C7.15999 11.8334 6.83333 12.16 6.83333 13V14.1667Z" fill="#05A85E"/>
</svg>
