<svg width="16" height="16" viewBox="0 0 16 16" fill="none" xmlns="http://www.w3.org/2000/svg">
<path d="M10.9933 15.1667H4.99996C3.85329 15.1667 2.99329 14.86 2.45996 14.2534C1.92662 13.6467 1.71995 12.7667 1.85995 11.6267L2.45996 6.62671C2.63329 5.15338 3.00663 3.83337 5.60663 3.83337H10.4066C13 3.83337 13.3733 5.15338 13.5533 6.62671L14.1533 11.6267C14.2866 12.7667 14.0866 13.6534 13.5533 14.2534C13 14.86 12.1466 15.1667 10.9933 15.1667ZM5.59995 4.83337C3.67995 4.83337 3.58662 5.59336 3.44662 6.74003L2.84663 11.74C2.74663 12.5867 2.86662 13.2067 3.20662 13.5867C3.54662 13.9667 4.14662 14.16 4.99996 14.16H10.9933C11.8466 14.16 12.4466 13.9667 12.7866 13.5867C13.1266 13.2067 13.2466 12.5867 13.1466 11.74L12.5466 6.74003C12.4066 5.5867 12.32 4.83337 10.3933 4.83337H5.59995Z" fill="#05A85E"/>
<path d="M10.6667 5.83337C10.3933 5.83337 10.1667 5.60671 10.1667 5.33337V3.00004C10.1667 2.28004 9.72001 1.83337 9.00001 1.83337H7.00001C6.28001 1.83337 5.83334 2.28004 5.83334 3.00004V5.33337C5.83334 5.60671 5.60668 5.83337 5.33334 5.83337C5.06001 5.83337 4.83334 5.60671 4.83334 5.33337V3.00004C4.83334 1.72671 5.72668 0.833374 7.00001 0.833374H9.00001C10.2733 0.833374 11.1667 1.72671 11.1667 3.00004V5.33337C11.1667 5.60671 10.94 5.83337 10.6667 5.83337Z" fill="#05A85E"/>
<path d="M13.6067 11.8534H5.33334C5.06001 11.8534 4.83334 11.6267 4.83334 11.3534C4.83334 11.0801 5.06001 10.8534 5.33334 10.8534H13.6067C13.88 10.8534 14.1067 11.0801 14.1067 11.3534C14.1067 11.6267 13.88 11.8534 13.6067 11.8534Z" fill="#05A85E"/>
</svg>
