<svg width="20" height="20" viewBox="0 0 20 20" fill="none" xmlns="http://www.w3.org/2000/svg">
<path d="M15.1583 14.7916H6.28332C5.45832 14.7916 4.66665 14.4416 4.10832 13.8333C3.54998 13.225 3.26666 12.4083 3.33332 11.5833L4.02499 3.28329C4.04999 3.02496 3.95832 2.77496 3.78332 2.5833C3.60832 2.39163 3.36665 2.29163 3.10832 2.29163H1.66666C1.32499 2.29163 1.04166 2.00829 1.04166 1.66663C1.04166 1.32496 1.32499 1.04163 1.66666 1.04163H3.11666C3.72499 1.04163 4.29998 1.29996 4.70832 1.74162C4.93332 1.99162 5.09999 2.2833 5.19165 2.6083H15.6C16.4417 2.6083 17.2167 2.94163 17.7833 3.54163C18.3417 4.14996 18.625 4.94163 18.5583 5.78329L18.1083 12.0333C18.0167 13.5583 16.6833 14.7916 15.1583 14.7916ZM5.23332 3.84996L4.58332 11.6833C4.54166 12.1666 4.69999 12.6249 5.02499 12.9833C5.34999 13.3416 5.79998 13.5333 6.28332 13.5333H15.1583C16.025 13.5333 16.8083 12.8 16.875 11.9333L17.325 5.6833C17.3583 5.19163 17.2 4.72497 16.875 4.3833C16.55 4.0333 16.1 3.84161 15.6083 3.84161H5.23332V3.84996Z" fill="#383F47"/>
<path d="M13.5417 18.9583C12.625 18.9583 11.875 18.2083 11.875 17.2917C11.875 16.375 12.625 15.625 13.5417 15.625C14.4583 15.625 15.2083 16.375 15.2083 17.2917C15.2083 18.2083 14.4583 18.9583 13.5417 18.9583ZM13.5417 16.875C13.3083 16.875 13.125 17.0583 13.125 17.2917C13.125 17.525 13.3083 17.7083 13.5417 17.7083C13.775 17.7083 13.9583 17.525 13.9583 17.2917C13.9583 17.0583 13.775 16.875 13.5417 16.875Z" fill="#383F47"/>
<path d="M6.87501 18.9583C5.95834 18.9583 5.20834 18.2083 5.20834 17.2917C5.20834 16.375 5.95834 15.625 6.87501 15.625C7.79168 15.625 8.54168 16.375 8.54168 17.2917C8.54168 18.2083 7.79168 18.9583 6.87501 18.9583ZM6.87501 16.875C6.64168 16.875 6.45834 17.0583 6.45834 17.2917C6.45834 17.525 6.64168 17.7083 6.87501 17.7083C7.10834 17.7083 7.29168 17.525 7.29168 17.2917C7.29168 17.0583 7.10834 16.875 6.87501 16.875Z" fill="#383F47"/>
<path d="M17.5 7.29163H7.5C7.15833 7.29163 6.875 7.00829 6.875 6.66663C6.875 6.32496 7.15833 6.04163 7.5 6.04163H17.5C17.8417 6.04163 18.125 6.32496 18.125 6.66663C18.125 7.00829 17.8417 7.29163 17.5 7.29163Z" fill="#383F47"/>
</svg>
