<svg width="16" height="16" viewBox="0 0 16 16" fill="none" xmlns="http://www.w3.org/2000/svg">
<path d="M10.6667 15.1667H2C1.36 15.1667 0.833336 14.64 0.833336 14V5.33337C0.833336 2.38671 2.38667 0.833374 5.33334 0.833374H10.6667C13.6133 0.833374 15.1667 2.38671 15.1667 5.33337V10.6667C15.1667 13.6134 13.6133 15.1667 10.6667 15.1667ZM5.33334 1.83337C2.94667 1.83337 1.83334 2.94671 1.83334 5.33337V14C1.83334 14.0934 1.90667 14.1667 2 14.1667H10.6667C13.0533 14.1667 14.1667 13.0534 14.1667 10.6667V5.33337C14.1667 2.94671 13.0533 1.83337 10.6667 1.83337H5.33334Z" fill="#05A85E"/>
<path d="M11.3333 6.83337H4.66666C4.39333 6.83337 4.16666 6.60671 4.16666 6.33337C4.16666 6.06004 4.39333 5.83337 4.66666 5.83337H11.3333C11.6067 5.83337 11.8333 6.06004 11.8333 6.33337C11.8333 6.60671 11.6067 6.83337 11.3333 6.83337Z" fill="#05A85E"/>
<path d="M9.33333 10.1666H4.66666C4.39333 10.1666 4.16666 9.93996 4.16666 9.66663C4.16666 9.39329 4.39333 9.16663 4.66666 9.16663H9.33333C9.60666 9.16663 9.83333 9.39329 9.83333 9.66663C9.83333 9.93996 9.60666 10.1666 9.33333 10.1666Z" fill="#05A85E"/>
</svg>
