<svg width="80" height="80" viewBox="0 0 80 80" fill="none" xmlns="http://www.w3.org/2000/svg">
<g clip-path="url(#clip0)">
<path d="M63.9733 12.4122L66.5091 11.5867L69.1132 19.5873L66.5774 20.4122L63.9733 12.4122Z" fill="#05A85E"/>
<path d="M60.0651 21.7467L62.6009 20.9211L65.2057 28.9205L62.6699 29.7467L60.0651 21.7467Z" fill="#05A85E"/>
<path d="M15.1042 25.6361C14.8229 27.6732 15.4173 29.7344 16.7416 31.308L18.6667 33.7227V56H21.3334V35.8256L23.2598 37.1094C23.7084 37.4082 24.2917 37.4082 24.7403 37.1094L28 34.9336L31.2598 37.1068C31.7084 37.4056 32.2917 37.4056 32.7403 37.1068L36 34.9336L39.2598 37.1068C39.7083 37.4056 40.2917 37.4056 40.7402 37.1068L44 34.9336L47.2598 37.1068C47.7083 37.4056 48.2917 37.4056 48.7402 37.1068L52 34.9336L54.6667 36.711V77.3334H25.3334V80H62.6667C66.347 79.9955 69.3288 77.0137 69.3333 73.3334V33.3334C69.3301 33.0404 69.2292 32.7565 69.0469 32.5267L76.752 12.0137C77.7891 9.25785 77.4095 6.16931 75.7363 3.74678C74.1465 1.39652 71.4915 -0.00842551 68.655 3.80224e-05C65.0391 0.0338922 61.8184 2.29301 60.556 5.68168L58.4655 11.2468L56 8.78129V4.00004C56 3.26371 55.403 2.6667 54.6667 2.6667H40C39.2637 2.6667 38.6667 3.26371 38.6667 4.00004V6.2878C37.1595 4.92191 34.8861 4.84444 33.2891 6.10551V4.00004C33.2891 1.81775 31.5202 0.048215 29.3373 0.048215C27.155 0.048215 25.3854 1.81775 25.3854 4.00004V6.10681C24.6556 5.50199 23.737 5.17126 22.7891 5.17322C21.6888 5.17061 20.6341 5.61462 19.8666 6.40434C18.2852 8.03389 18.2754 10.6224 19.8438 12.2644L21.0853 13.5456C20.6335 13.7526 20.2233 14.0404 19.875 14.3946L19.8666 14.3998L19.8535 14.4135C19.543 14.7325 19.2858 15.0996 19.0931 15.5013L17.5736 12.6947L15.2279 13.9642L18.6758 20.3282C18.5215 20.4161 18.3666 20.5013 18.2201 20.6016C18.1654 20.6387 18.1172 20.6817 18.0638 20.7188L12.9043 15.9642L11.0964 17.9252L16.2214 22.6504C15.6328 23.5508 15.2513 24.5704 15.1042 25.6361ZM43.2598 32.224L40 34.3998L36.7403 32.2266C36.2917 31.9278 35.7083 31.9278 35.2598 32.2266L32.0306 34.3802C32.0228 34.2468 32 34.1309 32 34.0026C31.9916 31.0723 34.1068 28.5664 36.9968 28.0834C39.8874 27.5996 42.7025 29.2806 43.6478 32.0547C43.5104 32.0905 43.3796 32.1472 43.2598 32.224ZM46.6667 33.5092L46.6413 33.4922C46.4811 30.6895 44.9714 28.1387 42.5912 26.6498C40.2116 25.1608 37.2572 24.9187 34.6667 26V17.3334H46.6667V33.5092ZM66.6667 73.3334C66.6667 75.5424 64.8757 77.3334 62.6667 77.3334H57.3333V36.7136L60 34.9336L63.2598 37.1068C63.7083 37.4056 64.2917 37.4056 64.7402 37.1068L66.6667 35.8256V73.3334ZM63.0521 6.61853C63.9212 4.26827 66.1491 2.6973 68.655 2.6667C70.6146 2.6628 72.4473 3.6348 73.5443 5.2585C74.7214 6.96358 74.987 9.13741 74.2559 11.0762L66 33.0664L64 34.3998L60.7402 32.2266C60.2917 31.9278 59.7083 31.9278 59.2598 32.2266L56 34.3998L53.2949 32.5964L63.0521 6.61853ZM57.4362 13.9883L50.36 32.8243L49.3333 33.5092V16.5521L54.6667 11.2188L57.4362 13.9883ZM41.3333 5.33337H53.3333V8.00004H41.3333V5.33337ZM40.5521 10.6667H51.4479L47.4479 14.6667H36.5521L40.5521 10.6667ZM21.7696 8.27478C22.0371 7.99874 22.405 7.84249 22.7891 7.84249C23.1738 7.84314 23.5417 7.99874 23.8093 8.27478L25.7669 10.2748C26.1472 10.6628 26.7246 10.7806 27.2266 10.5743C27.7285 10.3672 28.0554 9.87634 28.0521 9.33337V4.00004C28.0306 3.52673 28.2709 3.08012 28.6771 2.83728C29.084 2.59379 29.5912 2.59379 29.9974 2.83728C30.4043 3.08012 30.6445 3.52673 30.6224 4.00004V9.33337C30.6231 9.87439 30.9505 10.3614 31.4518 10.5658C31.9525 10.7709 32.5274 10.6524 32.9069 10.267L34.8705 8.26697C35.433 7.71293 36.3353 7.71293 36.8972 8.26697C37.4766 8.86006 37.4766 9.80668 36.8972 10.3998L32.9694 14.3998L33.0091 14.4401L32.3906 15.0586C32.2832 15.1693 32.1966 15.2982 32.1335 15.4388C32.1146 15.4799 32.1042 15.5215 32.0892 15.5638C32.0495 15.6778 32.0254 15.7963 32.0176 15.9161C32.0176 15.9454 32.0013 15.9694 32.0013 15.9987V27.7598C31.6979 28.0502 31.416 28.362 31.1589 28.6934L28.64 23.3334C27.7103 21.4838 26.03 20.1231 24.0267 19.6003C23.5606 19.4799 23.0827 19.4069 22.6016 19.3842L22.2598 18.9838C21.9935 18.6784 21.7923 18.4401 21.7598 18.4069C21.4154 18.0463 21.2663 17.5411 21.36 17.0508C21.4095 16.7722 21.5378 16.5144 21.7292 16.3067L21.7533 16.2839L21.7865 16.2481C22.2696 15.7748 23.0176 15.7051 23.5801 16.0801C24.1459 16.4584 24.905 16.3496 25.3425 15.8288C25.78 15.3073 25.7546 14.5411 25.2839 14.0495L21.7598 10.4121C21.1875 9.81319 21.1921 8.86853 21.7696 8.27478ZM17.7468 26C17.9206 24.7077 18.6361 23.5502 19.7149 22.8171C20.7845 22.0938 22.1133 21.8646 23.364 22.1882C24.614 22.5124 25.6647 23.3581 26.2481 24.5105L29.6465 31.7494C29.5625 32.0612 29.4961 32.3776 29.4479 32.6973L28.7455 32.2279C28.2975 31.9291 27.7136 31.9291 27.2656 32.2279L24 34.3998L21.043 32.4265L20.7572 32.0684L24.1947 29.4108L22.5625 27.3015L19.0964 29.9825L18.8001 29.6133C17.9518 28.6133 17.569 27.2995 17.7468 26Z" fill="#05A85E"/>
<path d="M22 61C19.6 59 16.3333 61.1667 15 62.5C12 58 9.5 60 6 61.5C2.5 63 4 71 6.5 76C8.5 80 13 79 15 78C21 80 21.5 79 24 71.5C26.5 64 25 63.5 22 61Z" fill="#CDEEDF"/>
<path d="M5.51369 76.6744C6.52671 78.718 8.61395 80.0077 10.8946 79.9999C11.8288 79.9986 12.7494 79.7812 13.5853 79.3652L14.6667 78.8241L15.7494 79.3652C16.5847 79.7812 17.5052 79.9986 18.4388 79.9999C20.7201 80.0077 22.8067 78.718 23.8203 76.6744L24.2852 75.7415C25.8464 72.6086 26.6615 69.1575 26.6667 65.6575C26.6621 61.7981 23.5352 58.6711 19.6758 58.6666C18.375 58.6705 17.1009 59.0396 16 59.733V58.6666C16 55.7213 13.612 53.3333 10.6667 53.3333V55.9999C12.1393 55.9999 13.3334 57.1939 13.3334 58.6666V59.733C12.2324 59.0396 10.9584 58.6705 9.65757 58.6666C5.7982 58.6711 2.67124 61.7981 2.66669 65.6575C2.67124 69.1581 3.48635 72.6106 5.0482 75.7441L5.51369 76.6744ZM9.65757 61.3333C10.8047 61.33 11.9056 61.7864 12.7149 62.6002L13.724 63.6093C14.2448 64.1295 15.0886 64.1295 15.6094 63.6093L16.6185 62.6002C17.8555 61.3632 19.7149 60.9934 21.3307 61.6627C22.9466 62.332 24 63.9088 24 65.6575C23.9968 68.7447 23.278 71.789 21.8998 74.552L21.4349 75.4856C20.8692 76.6217 19.7077 77.3378 18.4388 77.3333C17.9193 77.3326 17.4069 77.2115 16.9414 76.9797L15.263 76.1399C14.8874 75.9524 14.446 75.9524 14.071 76.1399L12.3932 76.9797C11.9278 77.2115 11.4147 77.3326 10.8946 77.3333C9.62502 77.3372 8.46291 76.6191 7.89846 75.481L7.43361 74.5481C6.05601 71.7864 5.33726 68.7434 5.33335 65.6575C5.33661 63.2708 7.27085 61.3365 9.65757 61.3333Z" fill="#05A85E"/>
</g>
<defs>
<clipPath id="clip0">
<rect width="80" height="80" fill="white"/>
</clipPath>
</defs>
</svg>
