<svg width="32" height="32" viewBox="0 0 32 32" fill="none" xmlns="http://www.w3.org/2000/svg">
<path d="M22.6667 28.3333H9.33333C4.46666 28.3333 1.66666 25.5333 1.66666 20.6666V11.3333C1.66666 6.46663 4.46666 3.66663 9.33333 3.66663H22.6667C27.5333 3.66663 30.3333 6.46663 30.3333 11.3333V20.6666C30.3333 25.5333 27.5333 28.3333 22.6667 28.3333ZM9.33333 5.66663C5.52 5.66663 3.66666 7.51996 3.66666 11.3333V20.6666C3.66666 24.48 5.52 26.3333 9.33333 26.3333H22.6667C26.48 26.3333 28.3333 24.48 28.3333 20.6666V11.3333C28.3333 7.51996 26.48 5.66663 22.6667 5.66663H9.33333Z" fill="#05A85E"/>
<path d="M15.9997 17.16C14.8797 17.16 13.7464 16.8133 12.8797 16.1066L8.70637 12.7733C8.2797 12.4266 8.19971 11.8 8.54638 11.3733C8.89304 10.9466 9.51972 10.8666 9.94638 11.2133L14.1197 14.5466C15.133 15.36 16.853 15.36 17.8664 14.5466L22.0397 11.2133C22.4664 10.8666 23.1064 10.9333 23.4397 11.3733C23.7864 11.8 23.7197 12.44 23.2797 12.7733L19.1064 16.1066C18.253 16.8133 17.1197 17.16 15.9997 17.16Z" fill="#05A85E"/>
</svg>
