<svg width="80" height="80" viewBox="0 0 80 80" fill="none" xmlns="http://www.w3.org/2000/svg">
<path d="M41.5 41H17.5C17.5 47.8 20.1667 49.8333 21.5 50H30C37.2 50 39.6667 48.6667 40 48L41.5 41Z" fill="#CDEEDF"/>
<path d="M76.4844 10.7031H19.1156C18.4683 10.7031 17.9437 11.2277 17.9437 11.875C17.9437 12.5223 18.4683 13.0469 19.1156 13.0469H56.25V20.9531C56.25 21.6005 56.7745 22.125 57.4219 22.125C58.0692 22.125 58.5938 21.6005 58.5938 20.9531V13.0469H76.4844C77.1306 13.0469 77.6562 13.5725 77.6562 14.2188V61.0938C77.6562 61.74 77.1306 62.2656 76.4844 62.2656H58.5938V26.0609C58.5938 25.4136 58.0692 24.8891 57.4219 24.8891C56.7745 24.8891 56.25 25.4136 56.25 26.0609V62.2656H3.51562C2.86937 62.2656 2.34375 61.74 2.34375 61.0938V14.2188C2.34375 13.5725 2.86937 13.0469 3.51562 13.0469H14.0094C14.6567 13.0469 15.1813 12.5223 15.1813 11.875C15.1813 11.2277 14.6567 10.7031 14.0094 10.7031H3.51562C1.57719 10.7031 0 12.2803 0 14.2188V61.0938C0 63.0322 1.57719 64.6094 3.51562 64.6094H5.74219V65C5.74219 67.3692 7.66984 69.2969 10.0391 69.2969H14.7266C17.0958 69.2969 19.0234 67.3692 19.0234 65V64.6094H60.9766V65C60.9766 67.3692 62.9042 69.2969 65.2734 69.2969H69.9609C72.3302 69.2969 74.2578 67.3692 74.2578 65V64.6094H76.4844C78.4228 64.6094 80 63.0322 80 61.0938V14.2188C80 12.2803 78.4228 10.7031 76.4844 10.7031ZM16.6797 65C16.6797 66.077 15.8036 66.9531 14.7266 66.9531H10.0391C8.96203 66.9531 8.08594 66.077 8.08594 65V64.6094H16.6797V65ZM71.9141 65C71.9141 66.077 71.038 66.9531 69.9609 66.9531H65.2734C64.1964 66.9531 63.3203 66.077 63.3203 65V64.6094H71.9141V65Z" fill="#05A85E"/>
<path d="M6.25 18.125V57.1875C6.25 57.8348 6.77453 58.3594 7.42188 58.3594H51.1719C51.8192 58.3594 52.3438 57.8348 52.3438 57.1875V18.125C52.3438 17.4777 51.8192 16.9531 51.1719 16.9531H7.42188C6.77453 16.9531 6.25 17.4777 6.25 18.125ZM8.59375 56.0156V51.1469H50V56.0156H8.59375ZM50 19.2969V48.8031H40.5455C41.0911 48.073 41.4731 47.2062 41.6323 46.2506L42.5433 40.7928C42.5797 39.9808 42.1945 39.5258 41.3875 39.4281H31.85C31.2027 39.4281 30.6781 39.9527 30.6781 40.6C30.6781 41.2473 31.2027 41.7719 31.85 41.7719H40.0039L39.3206 45.8652C39.0372 47.5677 37.5789 48.8031 35.8533 48.8031H22.7408C21.0152 48.8031 19.5569 47.5677 19.2733 45.8648L18.5902 41.7719H26.7441C27.3914 41.7719 27.9159 41.2473 27.9159 40.6C27.9159 39.9527 27.3914 39.4281 26.7441 39.4281H17.2066C16.3995 39.5259 16.0142 39.9808 16.0508 40.7928L16.9616 46.2503C17.1208 47.2061 17.5028 48.073 18.0486 48.8031H8.59375V19.2969H50Z" fill="#05A85E"/>
<path d="M72.0312 33.3594C72.6786 33.3594 73.2031 32.8348 73.2031 32.1875V18.125C73.2031 17.4777 72.6786 16.9531 72.0312 16.9531H64.2188C63.5714 16.9531 63.0469 17.4777 63.0469 18.125V32.1875C63.0469 32.8348 63.5714 33.3594 64.2188 33.3594H72.0312ZM65.3906 19.2969H70.8594V31.0156H65.3906V19.2969Z" fill="#05A85E"/>
<path d="M68.125 46.6406C70.9252 46.6406 73.2031 44.3627 73.2031 41.5625C73.2031 38.7623 70.9252 36.4844 68.125 36.4844C65.3248 36.4844 63.0469 38.7623 63.0469 41.5625C63.0469 44.3627 65.3248 46.6406 68.125 46.6406ZM68.125 38.8281C69.6327 38.8281 70.8594 40.0548 70.8594 41.5625C70.8594 43.0702 69.6327 44.2969 68.125 44.2969C66.6173 44.2969 65.3906 43.0702 65.3906 41.5625C65.3906 40.0548 66.6173 38.8281 68.125 38.8281Z" fill="#05A85E"/>
<path d="M64.2188 52.7094H72.0312C72.6786 52.7094 73.2031 52.1848 73.2031 51.5375C73.2031 50.8901 72.6786 50.3656 72.0312 50.3656H64.2188C63.5714 50.3656 63.0469 50.8901 63.0469 51.5375C63.0469 52.1848 63.5714 52.7094 64.2188 52.7094Z" fill="#05A85E"/>
<path d="M64.2188 58.3594H72.0312C72.6786 58.3594 73.2031 57.8348 73.2031 57.1875C73.2031 56.5402 72.6786 56.0156 72.0312 56.0156H64.2188C63.5714 56.0156 63.0469 56.5402 63.0469 57.1875C63.0469 57.8348 63.5714 58.3594 64.2188 58.3594Z" fill="#05A85E"/>
<path d="M32.1253 30.2514C33.6309 31.5554 33.5409 31.9509 32.1717 33.1584C31.6864 33.5864 31.6398 34.327 32.068 34.8125C32.6052 35.3042 33.1564 35.3389 33.722 34.9162C36.1375 32.786 36.0362 30.5382 33.6598 28.4796C32.132 27.1567 32.2876 26.7621 33.7064 25.5548C34.1992 25.1353 34.2589 24.3957 33.8395 23.9029C33.4203 23.4101 32.6806 23.3504 32.1877 23.7698C29.7034 25.8835 29.6942 28.1459 32.1253 30.2514Z" fill="#05A85E"/>
<path d="M24.922 30.2514C26.4276 31.5554 26.3375 31.951 24.9684 33.1584C24.4831 33.5865 24.4365 34.327 24.8647 34.8125C25.4018 35.3042 25.9531 35.3389 26.5187 34.9162C28.9339 32.786 28.8332 30.5382 26.4565 28.4798C24.9289 27.1565 25.084 26.7623 26.5031 25.5548C26.9959 25.1353 27.0556 24.3957 26.6362 23.9029C26.217 23.4101 25.4773 23.3504 24.9843 23.7698C22.5004 25.8834 22.4908 28.146 24.922 30.2514Z" fill="#05A85E"/>
</svg>
