<svg width="30" height="30" viewBox="0 0 30 30" fill="none" xmlns="http://www.w3.org/2000/svg">
<g clip-path="url(#clip0)">
<path d="M6.98995 8.58384C7.19842 8.4595 7.26662 8.18979 7.14229 7.98132C6.92772 7.62143 6.83638 7.27626 6.87089 6.95528C6.89532 6.72799 6.97278 6.58057 7.08006 6.3766C7.18535 6.17639 7.30465 5.94945 7.37812 5.62654C7.51019 5.04588 7.42834 4.41207 7.13479 3.74275C7.03735 3.5205 6.77825 3.41937 6.55583 3.51687C6.33359 3.61437 6.2324 3.87353 6.32996 4.09584C6.54623 4.58902 6.61056 5.03844 6.52115 5.4316C6.47328 5.64231 6.394 5.79301 6.30225 5.96756C6.17902 6.20188 6.03946 6.46737 5.99709 6.86141C5.94178 7.3761 6.07315 7.90432 6.3875 8.43149C6.51294 8.64202 6.7844 8.70642 6.98995 8.58384ZM25.083 11.3831C25.2914 11.2588 25.3596 10.9891 25.2353 10.7806C25.0207 10.4208 24.9295 10.0756 24.964 9.75454C24.9884 9.52726 25.0659 9.37978 25.1731 9.17581C25.2784 8.9756 25.3977 8.74872 25.4712 8.42581C25.6033 7.84514 25.5214 7.21133 25.2279 6.54207C25.1304 6.31983 24.8714 6.21875 24.6489 6.31614C24.4267 6.41364 24.3255 6.67285 24.423 6.8951C24.6393 7.38835 24.7036 7.83776 24.6143 8.23087C24.5663 8.44163 24.487 8.59233 24.3953 8.76688C24.2721 9.0012 24.1325 9.26675 24.0902 9.66073C24.0349 10.1755 24.1662 10.7038 24.4805 11.2309C24.606 11.4413 24.8774 11.5057 25.083 11.3831ZM27.1237 16.2744C27.3322 16.1501 27.4004 15.8804 27.276 15.6719C27.0615 15.3121 26.9702 14.9669 27.0046 14.6458C27.0291 14.4186 27.1065 14.2712 27.2138 14.0672C27.3191 13.867 27.4384 13.64 27.5118 13.3172C27.644 12.7366 27.5621 12.1028 27.2686 11.4334C27.1712 11.2111 26.9119 11.1099 26.6897 11.2074C26.4674 11.3049 26.3662 11.564 26.4638 11.7863C26.68 12.2796 26.7444 12.7291 26.6549 13.1222C26.607 13.3329 26.5277 13.4836 26.436 13.6582C26.3128 13.8924 26.1732 14.158 26.1308 14.552C26.0756 15.0667 26.207 15.5949 26.5212 16.1221C26.6467 16.3326 26.9182 16.397 27.1237 16.2744ZM4.35328 5.1043C4.56175 4.97996 4.62995 4.71025 4.50562 4.50178C4.29105 4.14189 4.1997 3.79672 4.23421 3.47574C4.25865 3.24851 4.33611 3.10109 4.44339 2.89706C4.54868 2.69685 4.66798 2.46991 4.74145 2.147C4.87352 1.56634 4.79161 0.932528 4.49812 0.263269C4.40068 0.0410222 4.14152 -0.0600522 3.91916 0.0373308C3.69692 0.134831 3.59573 0.39405 3.69329 0.616297C3.90955 1.10948 3.97389 1.55896 3.88447 1.95212C3.8366 2.16282 3.75727 2.31359 3.66557 2.48814C3.54235 2.7224 3.40278 2.98794 3.36042 3.38193C3.30511 3.89662 3.43647 4.42484 3.75082 4.95201C3.87627 5.16248 4.14773 5.22687 4.35328 5.1043ZM24.2424 21.7443C23.6388 21.1905 22.7505 21.0212 22.1018 20.8975C21.723 20.8253 21.4421 20.7893 21.1264 20.7394C20.3466 20.6162 19.5481 20.4392 18.9889 19.9823C18.4951 19.5789 18.3589 19.1702 18.2236 18.7005C18.1369 18.3988 17.8781 18.1919 17.5645 18.1733C17.2504 18.1544 16.9679 18.3299 16.8457 18.62C16.475 19.4998 16.1566 20.824 16.7451 22.1358C17.2331 23.224 18.2095 23.9765 19.5687 24.3119C20.1096 24.4454 20.6558 24.4979 21.1594 24.4979C21.7505 24.4979 22.2829 24.4255 22.6784 24.3266C23.8997 24.021 24.5944 23.5687 24.7433 22.9822C24.8165 22.6942 24.7889 22.2457 24.2424 21.7443ZM23.8916 22.766C23.8586 22.8956 23.5181 23.2105 22.4651 23.474C21.8351 23.6315 20.7988 23.7103 19.7793 23.4586C19.0212 23.2715 18.0186 22.8277 17.5469 21.7761C17.1617 20.9173 17.286 20.0244 17.515 19.3344C17.7104 19.7854 17.8165 20.1595 18.4327 20.6629C19.1537 21.252 20.0874 21.4651 20.9892 21.6076C21.3066 21.6577 21.9372 21.7608 21.9372 21.7608C22.4823 21.8648 23.2287 22.0071 23.6482 22.392C23.8507 22.5778 23.9058 22.7095 23.8916 22.766ZM29.9043 25.6577C29.7907 25.4784 29.5958 25.3714 29.3833 25.3714H26.6497C27.2226 24.641 27.5318 23.8789 27.5696 23.0964C27.6144 22.1725 27.2675 21.2259 26.5387 20.2829C26.3903 20.0909 26.1143 20.0556 25.9222 20.2039C25.7302 20.3524 25.6949 20.6284 25.8433 20.8204C26.4406 21.5933 26.726 22.3447 26.6917 23.0539C26.6539 23.8351 26.2422 24.6141 25.469 25.3714H11.293C11.0502 25.3714 10.8536 25.5682 10.8536 25.8109C10.8536 26.0535 11.0502 26.2503 11.293 26.2503H28.9684L27.9719 28.3616C27.754 28.8231 27.281 29.1214 26.7666 29.1214H3.23386C2.71953 29.1214 2.2464 28.8232 2.02861 28.3615L1.03206 26.2503H6.37109H6.37162H6.37197H9.24225C9.485 26.2503 9.6817 26.0535 9.6817 25.8109C9.6817 25.5682 9.485 25.3714 9.24225 25.3714H6.59181C6.18576 24.8052 5.93926 24.2142 5.85952 23.6117C5.76489 22.8956 5.90335 22.1421 6.2692 21.364C6.439 21.6274 6.63658 21.8745 6.86157 22.0995C7.70085 22.9388 8.81417 23.3998 9.99992 23.3997C10.0105 23.3997 10.0212 23.3997 10.0318 23.3996C11.2292 23.3913 12.3487 22.9136 13.1842 22.0545C13.9998 21.2157 14.4467 20.1112 14.4425 18.9445C14.4381 17.7025 13.9164 16.5271 12.999 15.6871C16.0702 14.6926 19.5487 16.1361 21.7185 17.5012C22.5911 18.0503 23.7884 18.8582 24.4704 19.4302C24.6555 19.5854 24.9329 19.5626 25.0895 19.3758C25.2455 19.1898 25.2211 18.9127 25.0352 18.7567C24.5482 18.3483 24.0032 17.9442 23.3391 17.4996C23.7532 15.9876 23.3315 14.3358 22.2183 13.2069C21.4635 12.4414 20.4582 11.9761 19.3875 11.8965C18.2733 11.8139 17.2341 11.3981 16.3824 10.694L15.0941 9.62956C14.6723 9.28069 14.1482 9.13778 13.6433 9.19415L13.2092 8.75968C13.5704 8.10671 13.4425 7.26917 12.8841 6.75512C12.2518 6.17258 11.2674 6.17955 10.6428 6.77118C10.4387 6.96477 10.2884 7.20542 10.205 7.47126C9.93833 7.55481 9.69752 7.70528 9.50475 7.9093C8.91302 8.53391 8.90605 9.51864 9.48887 10.1512C10.0024 10.7084 10.8394 10.8362 11.4933 10.4758L11.9296 10.912C11.8727 11.4304 12.0286 11.9565 12.3624 12.3604L13.4834 13.717C13.7002 13.9792 13.8887 14.2594 14.0473 14.5543C13.3911 14.6547 12.7428 14.823 12.1123 15.0562C11.566 14.7606 10.9603 14.5799 10.3315 14.5332C9.21706 14.4506 8.17797 14.0348 7.3265 13.331L6.03799 12.2659C5.61612 11.9172 5.09195 11.7744 4.58712 11.8308L4.15306 11.3963C4.51411 10.7436 4.38656 9.90613 3.8284 9.39167C3.19554 8.80937 2.21101 8.8164 1.5867 9.4079C1.38262 9.60144 1.23233 9.84208 1.14884 10.108C0.883063 10.1914 0.642305 10.3417 0.448597 10.546C-0.143131 11.1706 -0.150103 12.1553 0.432719 12.7879C0.946577 13.3454 1.78352 13.4733 2.43729 13.1126L2.87152 13.5468C2.81522 14.0516 2.95801 14.5756 3.30663 14.9973L4.42751 16.3534C5.10543 17.1736 5.51077 18.1893 5.56884 19.2134C5.59169 19.6158 5.66909 20.0093 5.79612 20.3846C5.11791 21.5249 4.84569 22.6484 4.98819 23.727C5.06283 24.2908 5.25103 24.8412 5.54956 25.3714H0.617169C0.404653 25.3714 0.209891 25.4784 0.0962207 25.6577C-0.0170976 25.8364 -0.0308083 26.0574 0.0594831 26.2488L1.2338 28.7366C1.59608 29.5043 2.3811 30.0003 3.23386 30.0003H26.7666C27.6194 30.0003 28.4044 29.5043 28.7667 28.7367L29.9411 26.2487C30.0313 26.0574 30.0175 25.8365 29.9043 25.6577ZM12.4861 9.75278C12.4059 9.83282 12.3341 9.91896 12.27 10.0097L12.0094 9.74903C11.7732 9.51443 11.4017 9.48179 11.1276 9.67017C10.8171 9.88193 10.3903 9.83265 10.1351 9.55562C9.86433 9.26177 9.86767 8.80415 10.1431 8.51346C10.2416 8.40929 10.3665 8.33528 10.5042 8.2996C10.7635 8.23263 10.9661 8.03001 11.033 7.77102C11.0686 7.63344 11.1428 7.50829 11.2473 7.4092C11.5373 7.13446 11.9947 7.13106 12.2886 7.40176C12.566 7.65711 12.6154 8.08362 12.403 8.39417C12.2139 8.67149 12.2481 9.04327 12.4833 9.277L12.7429 9.53681C12.6529 9.60044 12.5667 9.67216 12.4861 9.75278ZM13.0399 11.8008C12.883 11.6107 12.7966 11.3707 12.7966 11.1249C12.7966 10.841 12.9069 10.5747 13.1073 10.3746C13.2438 10.2381 13.4081 10.1469 13.5818 10.0999C13.5976 10.0968 13.6131 10.0926 13.6285 10.0877C13.9376 10.0189 14.272 10.0902 14.5341 10.3071L15.8225 11.3717C16.8154 12.1923 18.0257 12.677 19.3224 12.7731C20.1809 12.8369 20.9871 13.2101 21.5925 13.8241C22.418 14.6613 22.7693 15.8566 22.5555 16.9903C20.8914 15.9286 18.2679 14.2612 14.9795 14.4566C14.765 13.9929 14.4911 13.5566 14.1607 13.1571L13.0399 11.8008ZM3.43003 12.3896C3.34941 12.4702 3.27763 12.5564 3.214 12.6464L2.95338 12.3858C2.71713 12.1512 2.34565 12.1185 2.07138 12.3071C1.76113 12.5188 1.3344 12.4695 1.07894 12.1924C0.808181 11.8985 0.811521 11.4409 1.08638 11.1508C1.18558 11.0461 1.31079 10.9719 1.44813 10.9364C1.70735 10.8694 1.90996 10.6668 1.97681 10.4079C2.0125 10.2702 2.08667 10.145 2.1912 10.0459C2.4813 9.77101 2.93896 9.76779 3.23287 10.0383C3.51007 10.2938 3.55923 10.7203 3.34689 11.0308C3.15834 11.3073 3.1922 11.6787 3.42722 11.9137L3.68678 12.1735C3.59678 12.2372 3.51065 12.3089 3.43003 12.3896ZM5.1049 15.7936L3.98397 14.4375C3.62965 14.0095 3.66633 13.3962 4.05152 13.011C4.43665 12.6259 5.05416 12.5921 5.4779 12.9435L6.76642 14.0085C7.75898 14.829 8.96933 15.3136 10.2663 15.4098C11.1246 15.4735 11.9308 15.8468 12.5362 16.4607C13.1953 17.1291 13.5602 18.0124 13.5635 18.9478C13.5669 19.8831 13.2083 20.7689 12.554 21.4417C11.8838 22.1309 10.9859 22.5141 10.0256 22.5208C10.0171 22.5209 10.0086 22.5209 10 22.5209C9.04913 22.5209 8.15606 22.1511 7.48306 21.478H7.48301C6.86397 20.859 6.49566 20.0371 6.44621 19.1637C6.37765 17.9539 5.9013 16.7571 5.1049 15.7936Z" fill="#646D84"/>
</g>
<defs>
<clipPath id="clip0">
<rect width="30" height="30" fill="white"/>
</clipPath>
</defs>
</svg>
