<svg width="30" height="30" viewBox="0 0 30 30" fill="none" xmlns="http://www.w3.org/2000/svg">
<path d="M29.4989 19.0007H0.500895C0.224919 19.0007 0.000915527 19.2242 0.000915527 19.5007C0.000915527 25.2898 4.71061 30 10.5002 30H19.4996C25.2887 30 29.9989 25.2898 29.9989 19.5007C29.9989 19.2242 29.7754 19.0007 29.4989 19.0007ZM19.4996 29H10.5002C5.43003 29 1.2748 25.0073 1.01382 20.0006H28.9859C28.725 25.0073 24.5698 29 19.4996 29Z" fill="#646D84"/>
<path d="M25.5012 7.00458C25.5012 6.96808 25.5007 6.93158 25.4972 6.87609C25.4202 6.04716 24.8503 5.36619 24.0978 5.11072L24.6638 4.54476C25.6452 3.58336 25.7437 2.04545 24.8848 0.959537C23.9648 -0.158371 22.3069 -0.317394 21.1895 0.602057C21.126 0.654557 21.0645 0.710046 21.003 0.771569L20.388 1.39553C20.1301 0.647057 19.4476 0.0811014 18.6067 0.00311323C17.4993 -0.0573554 16.5618 0.792545 16.5024 1.89346C16.5004 1.92996 16.4998 1.96647 16.4998 2.00245V2.76891C16.2059 2.5984 15.8654 2.50043 15.5019 2.49991C15.4659 2.49991 15.4289 2.5009 15.3734 2.50389C14.3045 2.60338 13.4821 3.52184 13.5001 4.58672V5.2667C13.2001 5.0932 12.8581 5.00021 12.5022 4.99969C12.4662 4.99969 12.4297 5.00068 12.3742 5.00367C11.3047 5.10316 10.4823 6.02162 10.5003 7.08656V14.5011C10.5003 14.7776 10.7243 15.001 11.0003 15.001H19.4997C20.6026 15.001 21.4996 14.1041 21.499 13.0022C21.499 12.6382 21.4015 12.2967 21.2306 12.0023H21.906C22.9799 12.0317 23.8984 11.1973 23.9989 10.1089C24.0204 9.70188 23.9184 9.31692 23.7254 8.98997C24.1744 8.93999 24.5899 8.74148 24.9138 8.41851C25.2917 8.04152 25.5007 7.53954 25.5012 7.00458ZM24.2078 7.71052C24.0188 7.89849 23.7683 8.00202 23.5008 8.00202C23.5003 8.00202 23.4998 8.00202 23.4993 8.00202H21.9994C21.7229 8.00202 21.4995 8.22603 21.4995 8.502C21.4995 8.77798 21.7229 9.00198 21.9994 9.00198L22.0545 9.00351C22.6054 9.03298 23.0294 9.50495 23.0014 10.0359C22.9504 10.5869 22.4829 11.0134 21.9145 11.0018H19.4997C19.2231 11.0018 18.9997 11.2258 18.9997 11.5018C18.9997 11.7778 19.2231 12.0018 19.4997 12.0018C20.0511 12.0018 20.4996 12.4503 20.4996 13.0018C20.4996 13.5532 20.0511 14.0017 19.4997 14.0017H11.5002V7.07806C11.4907 6.52459 11.9156 6.05115 12.4471 6.00111L12.5016 5.99959C13.0521 6.00005 13.4995 6.44806 13.5 6.99802V7.00154C13.5 7.27751 13.7235 7.50152 13.9995 7.50152C14 7.50152 14 7.50152 14 7.50152C14.276 7.50152 14.4994 7.27804 14.5 7.00206V7.0016V4.57822C14.4905 4.02475 14.9155 3.55131 15.4469 3.50127L15.5009 3.49975C16.0519 3.50074 16.4994 3.94869 16.4999 4.49918V4.50217C16.4999 4.77814 16.7234 5.00215 16.9993 5.00215C16.9999 5.00215 16.9999 5.00215 16.9999 5.00215C17.2758 5.00215 17.4993 4.77867 17.4998 4.50269V4.50217V2.00239L17.5014 1.9469C17.5304 1.39641 17.9913 0.972486 18.5333 0.999967C19.0853 1.05147 19.5097 1.52491 19.4992 2.08787V2.50284C19.4992 2.70533 19.6218 2.88832 19.8097 2.96531C19.9962 3.04231 20.2132 2.9983 20.3552 2.85334L21.7116 1.47692C21.7485 1.44042 21.7866 1.4059 21.8261 1.37344C22.518 0.804498 23.5434 0.903463 24.1074 1.58743C24.6414 2.26336 24.5798 3.22729 23.9609 3.83379L22.646 5.14869C22.503 5.29166 22.46 5.50664 22.5375 5.69367C22.6145 5.88017 22.7975 6.00216 22.9994 6.00216H23.4144C23.4249 6.00216 23.4324 6.00216 23.4409 6.00216C23.9869 6.00216 24.4508 6.42316 24.4998 6.9491L24.5013 7.00412C24.5007 7.27107 24.3968 7.52202 24.2078 7.71052Z" fill="#646D84"/>
<path d="M21.6464 3.14725L7.64767 17.146L8.3547 17.853L22.3535 3.85428L21.6464 3.14725Z" fill="#646D84"/>
<path d="M19.4988 4.00476H18.4989V6.5046H19.4988V4.00476Z" fill="#646D84"/>
<path d="M16.4988 6.50461H15.4989V9.50443H16.4988V6.50461Z" fill="#646D84"/>
<path d="M13.499 8.9994H12.4991V12.4991H13.499V8.9994Z" fill="#646D84"/>
<path d="M21.4984 6.00461H18.9986V7.00451H21.4984V6.00461Z" fill="#646D84"/>
<path d="M18.9987 8.9994H15.9989V9.9993H18.9987V8.9994Z" fill="#646D84"/>
<path d="M16.4988 11.9992H12.9991V12.9992H16.4988V11.9992Z" fill="#646D84"/>
<path d="M9.33282 2.31286C9.33235 2.31187 9.3313 2.31087 9.33083 2.30988C8.62536 1.25343 7.19146 0.96644 6.13554 1.67191C6.10255 1.69341 6.07003 1.71638 6.03306 1.74392L5.85306 1.88091L5.68009 1.7564C4.76515 0.902983 3.32674 0.937495 2.4558 1.84142C2.02936 2.28339 1.80037 2.86534 1.81186 3.47982C1.82334 4.09429 2.07284 4.66722 2.51434 5.09319C2.64283 5.21718 2.7858 5.32616 2.93979 5.41716L3.36078 5.74616V6.00216C3.36078 7.38057 4.48221 8.502 5.86062 8.502C7.23904 8.502 8.36046 7.38005 8.35993 6.00169V5.74569L8.80243 5.40023C9.75979 4.67372 9.99229 3.31734 9.33282 2.31286ZM8.19241 4.60821L7.55245 5.10819C7.43146 5.20271 7.36044 5.34819 7.36044 5.50218V6.00216C7.36044 6.82909 6.68749 7.50204 5.86056 7.50204C5.03363 7.50204 4.36068 6.82909 4.36068 6.00216V5.50218C4.36068 5.34819 4.29019 5.20271 4.16867 5.10819L3.52871 4.60821C3.50973 4.59321 3.48922 4.57974 3.46824 4.56773C3.37426 4.51423 3.28725 4.44925 3.20926 4.37372C2.9593 4.13273 2.81826 3.80876 2.81176 3.46177C2.80526 3.11478 2.93475 2.78583 3.17574 2.53581C3.43022 2.27185 3.7707 2.13884 4.11166 2.13884C4.43662 2.13884 4.76211 2.25931 5.01412 2.50283C5.03111 2.51882 5.0491 2.53435 5.06861 2.54829L5.56859 2.90829C5.7466 3.03679 5.98806 3.0338 6.16308 2.90079L6.69007 2.50435C6.98005 2.31035 7.32751 2.24238 7.66952 2.30988C8.01048 2.37785 8.30497 2.57437 8.49845 2.86335C8.8694 3.43031 8.73739 4.19425 8.19241 4.60821Z" fill="#646D84"/>
<path d="M11.9992 0.499985H10.9993V1.49988H11.9992V0.499985Z" fill="#646D84"/>
<path d="M14.999 16.4989H13.9991V17.4988H14.999V16.4989Z" fill="#646D84"/>
<path d="M26.9991 3.00235V4.00231C27.5506 4.00231 27.999 4.45078 27.999 5.00221C27.999 5.55363 27.5506 6.00217 26.9991 6.00217V7.00207C28.102 7.00207 28.9989 6.10512 28.9989 5.00221C28.9989 3.8993 28.102 3.00235 26.9991 3.00235Z" fill="#646D84"/>
<path d="M1.99993 7.5045H1.00003V8.50446H1.99993V7.5045Z" fill="#646D84"/>
<path d="M1.00082 5.50465H0.000915527V6.50461H1.00082V5.50465Z" fill="#646D84"/>
<path d="M19.4996 16.0009C18.3967 16.0009 17.4997 16.8979 17.4997 18.0008H18.4997C18.4997 17.4493 18.9482 17.0008 19.4996 17.0008C20.0511 17.0008 20.4996 17.4493 20.4996 18.0008H21.4995C21.4995 16.8979 20.6025 16.0009 19.4996 16.0009Z" fill="#646D84"/>
<path d="M6.00058 11.5012H5.93759C5.71458 10.6398 4.93113 10.0014 4.00072 10.0014C3.07031 10.0014 2.28633 10.6398 2.06385 11.5012H2.00086C0.897951 11.5012 0.000999451 12.3982 0.000999451 13.5011C0.000999451 14.604 0.897951 15.5009 2.00086 15.5009H6.00058C7.10349 15.5009 8.00044 14.604 8.00044 13.5011C8.00044 12.3982 7.10349 11.5012 6.00058 11.5012ZM6.00058 14.5015H2.0008C1.44932 14.5015 1.00084 14.053 1.00084 13.5016C1.00084 12.9501 1.44932 12.5017 2.0008 12.5017H2.50078C2.77676 12.5017 3.00076 12.2777 3.00076 12.0017C3.00076 11.4502 3.44924 11.0018 4.00072 11.0018C4.5522 11.0018 5.00068 11.4503 5.00068 12.0017C5.00068 12.2777 5.22468 12.5017 5.50066 12.5017H6.00064C6.55212 12.5017 7.0006 12.9501 7.0006 13.5016C7.00048 14.0531 6.552 14.5015 6.00058 14.5015Z" fill="#646D84"/>
<path d="M5.00075 14.501H3.00089C2.72491 14.501 2.50091 14.725 2.50091 15.001V17.0009C2.50091 17.2774 2.72491 17.5009 3.00089 17.5009H5.00075C5.27672 17.5009 5.50073 17.2774 5.50073 17.0009V15.001C5.50073 14.725 5.27672 14.501 5.00075 14.501ZM4.50077 16.5009H3.50087V15.501H4.50083V16.5009H4.50077Z" fill="#646D84"/>
<path d="M26.4992 13.0012C25.6723 13.0012 24.9993 13.6741 24.9993 14.501C24.9993 15.328 25.6723 16.0009 26.4992 16.0009C27.3261 16.0009 27.9991 15.328 27.9991 14.501C27.9991 13.6741 27.3261 13.0012 26.4992 13.0012ZM26.4992 15.0015C26.2232 15.0015 25.9992 14.777 25.9992 14.5015C25.9992 14.226 26.2232 14.0015 26.4992 14.0015C26.7752 14.0015 26.9992 14.2255 26.9992 14.5015C26.9992 14.7776 26.7752 15.0015 26.4992 15.0015Z" fill="#646D84"/>
<path d="M26.4993 11.0013C24.5699 11.0013 22.9995 12.5712 22.9995 14.501C22.9995 16.4309 24.5699 18.0008 26.4993 18.0008C28.4287 18.0008 29.999 16.4309 29.999 14.501C29.999 12.5712 28.4287 11.0013 26.4993 11.0013ZM26.4993 17.0014C25.1209 17.0014 23.9994 15.8795 23.9994 14.5015C23.9994 13.1231 25.1209 12.0017 26.4993 12.0017C27.8777 12.0017 28.9991 13.1231 28.9991 14.5015C28.9991 15.8799 27.8777 17.0014 26.4993 17.0014Z" fill="#646D84"/>
</svg>
