<svg width="32" height="32" viewBox="0 0 32 32" fill="none" xmlns="http://www.w3.org/2000/svg">
<path d="M23.2666 30.3333C21.76 30.3333 20.1733 29.9733 18.5333 29.28C16.9333 28.6 15.32 27.6666 13.7466 26.5333C12.1866 25.3866 10.68 24.1066 9.25329 22.7066C7.83996 21.28 6.55996 19.7733 5.42663 18.2266C4.27996 16.6266 3.35996 15.0266 2.70663 13.48C2.01329 11.8266 1.66663 10.2266 1.66663 8.71996C1.66663 7.67996 1.85329 6.69329 2.21329 5.77329C2.58663 4.82663 3.18663 3.94663 3.99996 3.18663C5.02663 2.17329 6.19996 1.66663 7.45329 1.66663C7.97329 1.66663 8.50663 1.78663 8.95996 1.99996C9.47996 2.23996 9.91996 2.59996 10.24 3.07996L13.3333 7.43996C13.6133 7.82663 13.8266 8.19996 13.9733 8.57329C14.1466 8.97329 14.24 9.37329 14.24 9.75996C14.24 10.2666 14.0933 10.76 13.8133 11.2266C13.6133 11.5866 13.3066 11.9733 12.92 12.36L12.0133 13.3066C12.0266 13.3466 12.04 13.3733 12.0533 13.4C12.2133 13.68 12.5333 14.16 13.1466 14.88C13.8 15.6266 14.4133 16.3066 15.0266 16.9333C15.8133 17.7066 16.4666 18.32 17.08 18.8266C17.84 19.4666 18.3333 19.7866 18.6266 19.9333L18.6 20L19.5733 19.04C19.9866 18.6266 20.3866 18.32 20.7733 18.12C21.5066 17.6666 22.44 17.5866 23.3733 17.9733C23.72 18.12 24.0933 18.32 24.4933 18.6L28.92 21.7466C29.4133 22.08 29.7733 22.5066 29.9866 23.0133C30.1866 23.52 30.28 23.9866 30.28 24.4533C30.28 25.0933 30.1333 25.7333 29.8533 26.3333C29.5733 26.9333 29.2266 27.4533 28.7866 27.9333C28.0266 28.7733 27.2 29.3733 26.24 29.76C25.32 30.1333 24.32 30.3333 23.2666 30.3333ZM7.45329 3.66663C6.71996 3.66663 6.03996 3.98663 5.38663 4.62663C4.77329 5.19996 4.34663 5.82663 4.07996 6.50663C3.79996 7.19996 3.66663 7.93329 3.66663 8.71996C3.66663 9.95996 3.95996 11.3066 4.54663 12.6933C5.14663 14.1066 5.98663 15.5733 7.05329 17.04C8.11996 18.5066 9.33329 19.9333 10.6666 21.28C12 22.6 13.44 23.8266 14.92 24.9066C16.36 25.96 17.84 26.8133 19.3066 27.4266C21.5866 28.4 23.72 28.6266 25.48 27.8933C26.16 27.6133 26.76 27.1866 27.3066 26.5733C27.6133 26.24 27.8533 25.88 28.0533 25.4533C28.2133 25.12 28.2933 24.7733 28.2933 24.4266C28.2933 24.2133 28.2533 24 28.1466 23.76C28.1066 23.68 28.0266 23.5333 27.7733 23.36L23.3466 20.2133C23.08 20.0266 22.84 19.8933 22.6133 19.8C22.32 19.68 22.2 19.56 21.7466 19.84C21.48 19.9733 21.24 20.1733 20.9733 20.44L19.96 21.44C19.44 21.9466 18.64 22.0666 18.0266 21.84L17.6666 21.68C17.12 21.3866 16.48 20.9333 15.7733 20.3333C15.1333 19.7866 14.44 19.1466 13.6 18.32C12.9466 17.6533 12.2933 16.9466 11.6133 16.16C10.9866 15.4266 10.5333 14.8 10.2533 14.28L10.0933 13.88C10.0133 13.5733 9.98663 13.4 9.98663 13.2133C9.98663 12.7333 10.16 12.3066 10.4933 11.9733L11.4933 10.9333C11.76 10.6666 11.96 10.4133 12.0933 10.1866C12.2 10.0133 12.24 9.86663 12.24 9.73329C12.24 9.62663 12.2 9.46663 12.1333 9.30663C12.04 9.09329 11.8933 8.85329 11.7066 8.59996L8.61329 4.22663C8.47996 4.03996 8.31996 3.90663 8.11996 3.81329C7.90663 3.71996 7.67996 3.66663 7.45329 3.66663ZM18.6 20.0133L18.3866 20.92L18.7466 19.9866C18.68 19.9733 18.6266 19.9866 18.6 20.0133Z" fill="#05A85E"/>
<path d="M24.6667 13C24.12 13 23.6667 12.5467 23.6667 12C23.6667 11.52 23.1867 10.52 22.3867 9.66671C21.6 8.82671 20.7333 8.33337 20 8.33337C19.4533 8.33337 19 7.88004 19 7.33337C19 6.78671 19.4533 6.33337 20 6.33337C21.2933 6.33337 22.6533 7.02671 23.84 8.29337C24.9467 9.48004 25.6667 10.9334 25.6667 12C25.6667 12.5467 25.2133 13 24.6667 13Z" fill="#05A85E"/>
<path d="M29.3333 13C28.7867 13 28.3333 12.5466 28.3333 12C28.3333 7.39996 24.6 3.66663 20 3.66663C19.4533 3.66663 19 3.21329 19 2.66663C19 2.11996 19.4533 1.66663 20 1.66663C25.6933 1.66663 30.3333 6.30663 30.3333 12C30.3333 12.5466 29.88 13 29.3333 13Z" fill="#05A85E"/>
</svg>
