<svg width="20" height="20" viewBox="0 0 20 20" fill="none" xmlns="http://www.w3.org/2000/svg">
<path d="M9.26672 15.2084C9.10838 15.2084 8.95005 15.15 8.82505 15.025L7.57505 13.775C7.33338 13.5334 7.33338 13.1334 7.57505 12.8917C7.81672 12.65 8.21671 12.65 8.45838 12.8917L9.28338 13.7167L11.55 11.625C11.8 11.3917 12.2 11.4084 12.4334 11.6584C12.6667 11.9084 12.65 12.3084 12.4 12.5417L9.69172 15.0417C9.57505 15.15 9.42505 15.2084 9.26672 15.2084Z" fill="#05A85E"/>
<path d="M4.32507 5.31662C4.16673 5.31662 4.00007 5.24995 3.8834 5.13328C3.64173 4.89162 3.64173 4.49162 3.8834 4.24995L6.9084 1.22495C7.15007 0.983285 7.55007 0.983285 7.79173 1.22495C8.0334 1.46662 8.0334 1.86662 7.79173 2.10828L4.76673 5.13328C4.64173 5.24995 4.4834 5.31662 4.32507 5.31662Z" fill="#05A85E"/>
<path d="M15.675 5.31662C15.5167 5.31662 15.3584 5.25828 15.2334 5.13328L12.2083 2.10828C11.9667 1.86662 11.9667 1.46662 12.2083 1.22495C12.45 0.983285 12.85 0.983285 13.0917 1.22495L16.1167 4.24995C16.3584 4.49162 16.3584 4.89162 16.1167 5.13328C16 5.24995 15.8333 5.31662 15.675 5.31662Z" fill="#05A85E"/>
<path d="M16.8417 8.83333C16.7834 8.83333 16.7251 8.83333 16.6667 8.83333H16.4751H3.33341C2.75008 8.84167 2.08341 8.84167 1.60008 8.35833C1.21675 7.98333 1.04175 7.4 1.04175 6.54167C1.04175 4.25 2.71675 4.25 3.51675 4.25H16.4834C17.2834 4.25 18.9584 4.25 18.9584 6.54167C18.9584 7.40833 18.7834 7.98333 18.4001 8.35833C17.9667 8.79167 17.3834 8.83333 16.8417 8.83333ZM3.51675 7.58333H16.6751C17.0501 7.59167 17.4001 7.59167 17.5167 7.475C17.5751 7.41667 17.7001 7.21667 17.7001 6.54167C17.7001 5.6 17.4667 5.5 16.4751 5.5H3.51675C2.52508 5.5 2.29175 5.6 2.29175 6.54167C2.29175 7.21667 2.42508 7.41667 2.47508 7.475C2.59175 7.58333 2.95008 7.58333 3.31675 7.58333H3.51675Z" fill="#05A85E"/>
<path d="M12.4083 18.9584H7.38329C4.39996 18.9584 3.73329 17.1834 3.47496 15.6417L2.29996 8.43337C2.24162 8.09171 2.47496 7.77504 2.81662 7.71671C3.14996 7.65837 3.47496 7.89171 3.53329 8.23337L4.70829 15.4334C4.94996 16.9084 5.44996 17.7084 7.38329 17.7084H12.4083C14.55 17.7084 14.7916 16.9584 15.0666 15.5084L16.4666 8.21671C16.5333 7.87504 16.8583 7.65004 17.2 7.72504C17.5416 7.79171 17.7583 8.11671 17.6916 8.45837L16.2916 15.75C15.9666 17.4417 15.425 18.9584 12.4083 18.9584Z" fill="#05A85E"/>
</svg>
