<svg width="20" height="20" viewBox="0 0 20 20" fill="none" xmlns="http://www.w3.org/2000/svg">
<path d="M10.0001 13.9583C9.66675 13.9583 9.33342 13.9333 9.01675 13.875C7.25008 13.6166 5.64175 12.6 4.62508 11.0916C3.91675 10.025 3.54175 8.78329 3.54175 7.49996C3.54175 3.94163 6.44175 1.04163 10.0001 1.04163C13.5584 1.04163 16.4584 3.94163 16.4584 7.49996C16.4584 8.78329 16.0834 10.025 15.3751 11.0916C14.3501 12.6083 12.7417 13.6166 10.9584 13.8833C10.6667 13.9333 10.3334 13.9583 10.0001 13.9583ZM10.0001 2.29163C7.12508 2.29163 4.79175 4.62496 4.79175 7.49996C4.79175 8.54163 5.09175 9.54163 5.65841 10.3916C6.48342 11.6083 7.77508 12.425 9.20842 12.6333C9.74175 12.725 10.2667 12.725 10.7584 12.6333C12.2167 12.425 13.5084 11.6 14.3334 10.3833C14.9001 9.53329 15.2001 8.53328 15.2001 7.49162C15.2084 4.62495 12.8751 2.29163 10.0001 2.29163Z" fill="#05A85E"/>
<path d="M5.3916 18.825C5.27493 18.825 5.1666 18.8084 5.04993 18.7834C4.50826 18.6584 4.0916 18.2417 3.9666 17.7L3.67493 16.475C3.65826 16.4 3.59993 16.3417 3.5166 16.3167L2.1416 15.9917C1.62493 15.8667 1.2166 15.4833 1.07493 14.975C0.933263 14.4667 1.07493 13.9167 1.44993 13.5417L4.69993 10.2917C4.83326 10.1584 5.0166 10.0917 5.19993 10.1084C5.38326 10.125 5.54993 10.225 5.65826 10.3833C6.48326 11.6 7.77493 12.425 9.2166 12.6334C9.74993 12.725 10.2749 12.725 10.7666 12.6334C12.2249 12.425 13.5166 11.6 14.3416 10.3833C14.4416 10.225 14.6166 10.125 14.7999 10.1084C14.9833 10.0917 15.1666 10.1584 15.2999 10.2917L18.5499 13.5417C18.9249 13.9167 19.0666 14.4667 18.9249 14.975C18.7833 15.4833 18.3666 15.875 17.8583 15.9917L16.4833 16.3167C16.4083 16.3333 16.3499 16.3917 16.3249 16.475L16.0333 17.7C15.9083 18.2417 15.4916 18.6584 14.9499 18.7834C14.4083 18.9167 13.8499 18.725 13.4999 18.3L9.99993 14.275L6.49993 18.3084C6.2166 18.6417 5.8166 18.825 5.3916 18.825ZM5.07493 11.6917L2.33326 14.4334C2.25826 14.5084 2.2666 14.5917 2.28326 14.6417C2.2916 14.6834 2.33326 14.7667 2.43326 14.7833L3.80826 15.1084C4.34993 15.2334 4.7666 15.65 4.8916 16.1917L5.18326 17.4167C5.20826 17.525 5.2916 17.5583 5.3416 17.575C5.3916 17.5833 5.47493 17.5917 5.54993 17.5084L8.7416 13.8334C7.32493 13.5584 6.02493 12.8 5.07493 11.6917ZM11.2583 13.825L14.4499 17.4917C14.5249 17.5833 14.6166 17.5833 14.6666 17.5667C14.7166 17.5583 14.7916 17.5167 14.8249 17.4084L15.1166 16.1834C15.2416 15.6417 15.6583 15.225 16.1999 15.1L17.5749 14.775C17.6749 14.75 17.7166 14.675 17.7249 14.6333C17.7416 14.5917 17.7499 14.5 17.6749 14.425L14.9333 11.6833C13.9749 12.7917 12.6833 13.55 11.2583 13.825Z" fill="#05A85E"/>
<path d="M11.575 10.7416C11.3584 10.7416 11.1 10.6833 10.7917 10.5L10 10.025L9.20837 10.4916C8.48337 10.925 8.00837 10.675 7.83337 10.55C7.65837 10.425 7.28337 10.05 7.47504 9.22497L7.67504 8.36663L7.00837 7.74995C6.6417 7.38328 6.50837 6.94163 6.63337 6.54163C6.75837 6.14163 7.12504 5.85829 7.6417 5.77495L8.53337 5.62496L8.95837 4.69163C9.20004 4.21663 9.57504 3.94995 10 3.94995C10.425 3.94995 10.8084 4.22497 11.0417 4.69997L11.5334 5.6833L12.3584 5.78329C12.8667 5.86663 13.2334 6.14995 13.3667 6.54995C13.4917 6.94995 13.3584 7.39162 12.9917 7.75829L12.3 8.44997L12.5167 9.22497C12.7084 10.05 12.3334 10.425 12.1584 10.55C12.0667 10.625 11.8667 10.7416 11.575 10.7416ZM8.00837 6.99164L8.58337 7.56661C8.85004 7.83328 8.98337 8.2833 8.90004 8.64996L8.7417 9.31662L9.40837 8.92495C9.7667 8.71662 10.25 8.71662 10.6 8.92495L11.2667 9.31662L11.1167 8.64996C11.0334 8.27496 11.1584 7.83328 11.425 7.56661L12 6.99164L11.275 6.86662C10.925 6.80828 10.575 6.54997 10.4167 6.2333L10 5.41663L9.58337 6.24996C9.43337 6.55829 9.08337 6.82497 8.73337 6.8833L8.00837 6.99164Z" fill="#05A85E"/>
</svg>
