<svg width="20" height="20" viewBox="0 0 20 20" fill="none" xmlns="http://www.w3.org/2000/svg">
<path d="M10.8331 12.2916H9.99973C9.65807 12.2916 9.37473 12.0083 9.37473 11.6666C9.37473 11.325 9.65807 11.0416 9.99973 11.0416H10.8331C11.4081 11.0416 11.8747 10.575 11.8747 9.99996V2.29163H4.99973C4.0164 2.29163 3.11638 2.82494 2.63304 3.68328C2.46638 3.98328 2.08308 4.09164 1.78308 3.92498C1.48308 3.75831 1.37471 3.37496 1.54138 3.07496C2.24138 1.82496 3.5664 1.04163 4.99973 1.04163H12.4997C12.8414 1.04163 13.1247 1.32496 13.1247 1.66663V9.99996C13.1247 11.2666 12.0997 12.2916 10.8331 12.2916Z" fill="#05A85E"/>
<path d="M15.8334 17.2916H15.0001C14.6584 17.2916 14.3751 17.0083 14.3751 16.6666C14.3751 16.0916 13.9084 15.625 13.3334 15.625C12.7584 15.625 12.2917 16.0916 12.2917 16.6666C12.2917 17.0083 12.0084 17.2916 11.6667 17.2916H8.33342C7.99175 17.2916 7.70842 17.0083 7.70842 16.6666C7.70842 16.0916 7.24175 15.625 6.66675 15.625C6.09175 15.625 5.62508 16.0916 5.62508 16.6666C5.62508 17.0083 5.34175 17.2916 5.00008 17.2916H4.16675C2.44175 17.2916 1.04175 15.8916 1.04175 14.1666C1.04175 13.825 1.32508 13.5416 1.66675 13.5416C2.00841 13.5416 2.29175 13.825 2.29175 14.1666C2.29175 15.2 3.13341 16.0416 4.16675 16.0416H4.45839C4.73339 15.0833 5.61675 14.375 6.66675 14.375C7.71675 14.375 8.6001 15.0833 8.8751 16.0416H11.1334C11.4084 15.0833 12.2918 14.375 13.3418 14.375C14.3918 14.375 15.2751 15.0833 15.5501 16.0416H15.8334C16.8667 16.0416 17.7084 15.2 17.7084 14.1666V12.2916H15.8334C15.0334 12.2916 14.3751 11.6333 14.3751 10.8333V8.33329C14.3751 7.53329 15.0251 6.87496 15.8334 6.87496L14.9417 5.31663C14.7584 4.99163 14.4084 4.79163 14.0334 4.79163H13.1251V9.99996C13.1251 11.2666 12.1001 12.2916 10.8334 12.2916H10.0001C9.65841 12.2916 9.37508 12.0083 9.37508 11.6666C9.37508 11.325 9.65841 11.0416 10.0001 11.0416H10.8334C11.4084 11.0416 11.8751 10.575 11.8751 9.99996V4.16663C11.8751 3.82496 12.1584 3.54163 12.5001 3.54163H14.0334C14.8584 3.54163 15.6167 3.9833 16.0251 4.69997L17.4501 7.19163C17.5584 7.3833 17.5584 7.62496 17.4501 7.81663C17.3418 8.0083 17.1334 8.12496 16.9084 8.12496H15.8334C15.7167 8.12496 15.6251 8.21663 15.6251 8.33329V10.8333C15.6251 10.95 15.7167 11.0416 15.8334 11.0416H18.3334C18.6751 11.0416 18.9584 11.325 18.9584 11.6666V14.1666C18.9584 15.8916 17.5584 17.2916 15.8334 17.2916Z" fill="#05A85E"/>
<path d="M6.66667 18.9583C5.4 18.9583 4.375 17.9333 4.375 16.6667C4.375 15.4 5.4 14.375 6.66667 14.375C7.93333 14.375 8.95833 15.4 8.95833 16.6667C8.95833 17.9333 7.93333 18.9583 6.66667 18.9583ZM6.66667 15.625C6.09167 15.625 5.625 16.0917 5.625 16.6667C5.625 17.2417 6.09167 17.7083 6.66667 17.7083C7.24167 17.7083 7.70833 17.2417 7.70833 16.6667C7.70833 16.0917 7.24167 15.625 6.66667 15.625Z" fill="#05A85E"/>
<path d="M13.3334 18.9583C12.0667 18.9583 11.0417 17.9333 11.0417 16.6667C11.0417 15.4 12.0667 14.375 13.3334 14.375C14.6001 14.375 15.6251 15.4 15.6251 16.6667C15.6251 17.9333 14.6001 18.9583 13.3334 18.9583ZM13.3334 15.625C12.7584 15.625 12.2917 16.0917 12.2917 16.6667C12.2917 17.2417 12.7584 17.7083 13.3334 17.7083C13.9084 17.7083 14.3751 17.2417 14.3751 16.6667C14.3751 16.0917 13.9084 15.625 13.3334 15.625Z" fill="#05A85E"/>
<path d="M18.3333 12.2917H15.8333C15.0333 12.2917 14.375 11.6333 14.375 10.8333V8.33333C14.375 7.53333 15.0333 6.875 15.8333 6.875H16.9083C17.1333 6.875 17.3417 6.99167 17.45 7.19167L18.875 9.69167C18.925 9.78334 18.9583 9.89167 18.9583 10V11.6667C18.9583 12.0083 18.675 12.2917 18.3333 12.2917ZM15.8333 8.125C15.7167 8.125 15.625 8.21667 15.625 8.33333V10.8333C15.625 10.95 15.7167 11.0417 15.8333 11.0417H17.7083V10.1667L16.5416 8.125H15.8333Z" fill="#05A85E"/>
<path d="M6.66675 7.29163H1.66675C1.32508 7.29163 1.04175 7.00829 1.04175 6.66663C1.04175 6.32496 1.32508 6.04163 1.66675 6.04163H6.66675C7.00842 6.04163 7.29175 6.32496 7.29175 6.66663C7.29175 7.00829 7.00842 7.29163 6.66675 7.29163Z" fill="#05A85E"/>
<path d="M5.00008 9.79163H1.66675C1.32508 9.79163 1.04175 9.50829 1.04175 9.16663C1.04175 8.82496 1.32508 8.54163 1.66675 8.54163H5.00008C5.34175 8.54163 5.62508 8.82496 5.62508 9.16663C5.62508 9.50829 5.34175 9.79163 5.00008 9.79163Z" fill="#05A85E"/>
<path d="M3.33342 12.2916H1.66675C1.32508 12.2916 1.04175 12.0083 1.04175 11.6666C1.04175 11.325 1.32508 11.0416 1.66675 11.0416H3.33342C3.67508 11.0416 3.95842 11.325 3.95842 11.6666C3.95842 12.0083 3.67508 12.2916 3.33342 12.2916Z" fill="#05A85E"/>
</svg>
