<svg width="25" height="8" viewBox="0 0 25 8" fill="none" xmlns="http://www.w3.org/2000/svg">
<path fill-rule="evenodd" clip-rule="evenodd" d="M6.75024 7.85822H4.6905L3.14594 1.79235C3.07263 1.51332 2.91697 1.26664 2.688 1.15038C2.11658 0.858206 1.4869 0.625681 0.799988 0.508407V0.274871H4.11807C4.57601 0.274871 4.91947 0.625681 4.97671 1.0331L5.77811 5.40862L7.83685 0.274871H9.83935L6.75024 7.85822ZM10.9842 7.85822H9.03896L10.6408 0.274871H12.586L10.9842 7.85822ZM15.1027 2.37569C15.1599 1.96725 15.5034 1.73372 15.9041 1.73372C16.5338 1.67508 17.2197 1.79235 17.7921 2.08352L18.1356 0.450785C17.5631 0.217249 16.9335 0.0999756 16.362 0.0999756C14.474 0.0999756 13.1002 1.15038 13.1002 2.60821C13.1002 3.71726 14.0733 4.29958 14.7602 4.65039C15.5034 5.00019 15.7896 5.23373 15.7324 5.58353C15.7324 6.10822 15.1599 6.34176 14.5885 6.34176C13.9016 6.34176 13.2147 6.16686 12.586 5.87469L12.2426 7.50843C12.9295 7.79959 13.6726 7.91686 14.3595 7.91686C16.4765 7.97449 17.7921 6.92509 17.7921 5.34999C17.7921 3.36645 15.1027 3.25019 15.1027 2.37569ZM24.6 7.85822L23.0554 0.274871H21.3964C21.0529 0.274871 20.7095 0.508407 20.595 0.858206L17.7349 7.85822H19.7374L20.137 6.75019H22.5975L22.8265 7.85822H24.6ZM21.6826 2.31706L22.254 5.17509H20.6522L21.6826 2.31706Z" fill="#172B85"/>
</svg>
